G04 EAGLE Gerber RS-274X export*
G75*
%MOMM*%
%FSLAX34Y34*%
%LPD*%
%INBottom Copper*%
%IPPOS*%
%AMOC8*
5,1,8,0,0,1.08239X$1,22.5*%
G01*
%ADD10R,1.524000X1.524000*%
%ADD11P,1.649562X8X202.500000*%
%ADD12C,1.778000*%
%ADD13P,1.649562X8X22.500000*%
%ADD14R,0.508000X0.609600*%
%ADD15C,1.524000*%
%ADD16C,3.220000*%
%ADD17C,1.400000*%
%ADD18C,0.381000*%
%ADD19C,0.609600*%
%ADD20C,0.254000*%
%ADD21C,0.654800*%


D10*
X535940Y589280D03*
D11*
X510540Y589280D03*
X485140Y589280D03*
X459740Y589280D03*
X434340Y589280D03*
X408940Y589280D03*
X383540Y589280D03*
X358140Y589280D03*
X332740Y589280D03*
X307340Y589280D03*
X281940Y589280D03*
X256540Y589280D03*
X231140Y589280D03*
X205740Y589280D03*
X180340Y589280D03*
X154940Y589280D03*
X129540Y589280D03*
X104140Y589280D03*
D10*
X535940Y812800D03*
D11*
X510540Y812800D03*
X485140Y812800D03*
X459740Y812800D03*
X434340Y812800D03*
X408940Y812800D03*
X383540Y812800D03*
X358140Y812800D03*
X332740Y812800D03*
X307340Y812800D03*
X281940Y812800D03*
X256540Y812800D03*
X231140Y812800D03*
X205740Y812800D03*
X180340Y812800D03*
X154940Y812800D03*
X129540Y812800D03*
X104140Y812800D03*
X510540Y614680D03*
X485140Y614680D03*
X459740Y614680D03*
X434340Y614680D03*
X408940Y614680D03*
X383540Y614680D03*
X358140Y614680D03*
X332740Y614680D03*
X307340Y614680D03*
X281940Y614680D03*
X256540Y614680D03*
X231140Y614680D03*
X205740Y614680D03*
X180340Y614680D03*
X154940Y614680D03*
X129540Y614680D03*
X104140Y614680D03*
X510540Y838200D03*
X485140Y838200D03*
X459740Y838200D03*
X434340Y838200D03*
X408940Y838200D03*
X383540Y838200D03*
X358140Y838200D03*
X332740Y838200D03*
X307340Y838200D03*
X281940Y838200D03*
X256540Y838200D03*
X231140Y838200D03*
X205740Y838200D03*
X180340Y838200D03*
X154940Y838200D03*
X129540Y838200D03*
X104140Y838200D03*
X535940Y614680D03*
X535940Y838200D03*
D12*
X256540Y304800D03*
X281940Y304800D03*
X307340Y304800D03*
X332740Y304800D03*
D13*
X381000Y419100D03*
X406400Y419100D03*
X431800Y419100D03*
X457200Y419100D03*
X482600Y419100D03*
X508000Y419100D03*
X533400Y419100D03*
D14*
X469900Y502412D03*
X469900Y513588D03*
X495300Y502412D03*
X495300Y513588D03*
D15*
X777400Y647700D03*
X797400Y647700D03*
X752400Y647700D03*
X822400Y647700D03*
D16*
X721700Y620600D03*
X853100Y620600D03*
D17*
X287420Y662940D03*
X312420Y662940D03*
X337420Y662940D03*
D13*
X271780Y441960D03*
X297180Y441960D03*
X322580Y441960D03*
D18*
X469900Y513588D02*
X469900Y525780D01*
D19*
X469900Y525780D03*
D18*
X495300Y525780D02*
X495300Y513588D01*
D19*
X495300Y525780D03*
X228600Y386080D03*
X134620Y482600D03*
X205740Y393700D03*
X383540Y541020D03*
X22860Y482600D03*
D20*
X256540Y614680D02*
X256540Y629920D01*
D21*
X256540Y629920D03*
D20*
X266700Y629920D02*
X266700Y695960D01*
D21*
X266700Y629920D03*
D20*
X266700Y695960D02*
X383540Y812800D01*
D19*
X187960Y360680D03*
D20*
X180340Y368300D01*
X180340Y573116D01*
X191770Y584546D01*
X191770Y600710D02*
X205740Y614680D01*
X191770Y600710D02*
X191770Y584546D01*
D19*
X238760Y401320D03*
D20*
X231140Y401320D01*
X219710Y412750D02*
X219710Y603250D01*
X231140Y614680D01*
X219710Y412750D02*
X231140Y401320D01*
D19*
X137160Y533400D03*
X22860Y533400D03*
D20*
X448310Y584546D02*
X452120Y580736D01*
X448310Y626110D02*
X408940Y665480D01*
X448310Y626110D02*
X448310Y584546D01*
X408940Y665480D02*
X408940Y812800D01*
X452120Y580736D02*
X452120Y510540D01*
X460248Y502412D02*
X469900Y502412D01*
X460248Y502412D02*
X452120Y510540D01*
X431800Y449580D02*
X431800Y419100D01*
X431800Y449580D02*
X469900Y487680D01*
X469900Y502412D01*
X477520Y508000D02*
X477520Y580736D01*
X471170Y619415D02*
X434340Y656245D01*
X471170Y619415D02*
X471170Y587086D01*
X477520Y580736D01*
X434340Y656245D02*
X434340Y812800D01*
X495300Y457200D02*
X457200Y419100D01*
X495300Y457200D02*
X495300Y502412D01*
X483108Y502412D02*
X477520Y508000D01*
X483108Y502412D02*
X495300Y502412D01*
D19*
X693420Y650240D03*
D20*
X746760Y635000D02*
X772160Y635000D01*
X777400Y640240D02*
X777400Y647700D01*
X777400Y640240D02*
X772160Y635000D01*
X746760Y635000D02*
X734060Y647700D01*
X695960Y647700D02*
X693420Y650240D01*
X695960Y647700D02*
X734060Y647700D01*
D19*
X693420Y640080D03*
D20*
X731520Y642620D02*
X744220Y629920D01*
X695960Y642620D02*
X693420Y640080D01*
X695960Y642620D02*
X731520Y642620D01*
X797400Y647700D02*
X797400Y632300D01*
X795020Y629920D02*
X744220Y629920D01*
X795020Y629920D02*
X797400Y632300D01*
D19*
X690880Y601980D03*
D20*
X822400Y614680D02*
X822400Y647700D01*
X822400Y614680D02*
X807160Y599440D01*
X693420Y599440D02*
X690880Y601980D01*
X693420Y599440D02*
X807160Y599440D01*
X322580Y441960D02*
X279400Y485140D01*
X233680Y485140D01*
D19*
X233680Y485140D03*
X360680Y457200D03*
D20*
X365760Y452120D01*
X383540Y452120D01*
X391160Y459740D01*
X391160Y480060D01*
D19*
X391160Y480060D03*
D20*
X485140Y589280D02*
X510540Y589280D01*
M02*
