G04 EAGLE Gerber RS-274X export*
G75*
%MOMM*%
%FSLAX34Y34*%
%LPD*%
%IN*%
%IPPOS*%
%AMOC8*
5,1,8,0,0,1.08239X$1,22.5*%
G01*
%ADD10C,0.254000*%


D10*
X0Y0D02*
X609600Y0D01*
X609600Y508000D01*
X914400Y508000D01*
X914400Y901700D01*
X0Y901700D01*
X0Y0D01*
X27150Y27768D02*
X27083Y27430D01*
X26951Y27111D01*
X26759Y26824D01*
X26516Y26581D01*
X26229Y26389D01*
X25910Y26257D01*
X25572Y26190D01*
X25228Y26190D01*
X24890Y26257D01*
X24571Y26389D01*
X24284Y26581D01*
X24041Y26824D01*
X23849Y27111D01*
X23717Y27430D01*
X23650Y27768D01*
X23650Y28112D01*
X23717Y28450D01*
X23849Y28769D01*
X24041Y29056D01*
X24284Y29299D01*
X24571Y29491D01*
X24890Y29623D01*
X25228Y29690D01*
X25572Y29690D01*
X25910Y29623D01*
X26229Y29491D01*
X26516Y29299D01*
X26759Y29056D01*
X26951Y28769D01*
X27083Y28450D01*
X27150Y28112D01*
X27150Y27768D01*
X27150Y876128D02*
X27083Y875790D01*
X26951Y875471D01*
X26759Y875184D01*
X26516Y874941D01*
X26229Y874749D01*
X25910Y874617D01*
X25572Y874550D01*
X25228Y874550D01*
X24890Y874617D01*
X24571Y874749D01*
X24284Y874941D01*
X24041Y875184D01*
X23849Y875471D01*
X23717Y875790D01*
X23650Y876128D01*
X23650Y876472D01*
X23717Y876810D01*
X23849Y877129D01*
X24041Y877416D01*
X24284Y877659D01*
X24571Y877851D01*
X24890Y877983D01*
X25228Y878050D01*
X25572Y878050D01*
X25910Y877983D01*
X26229Y877851D01*
X26516Y877659D01*
X26759Y877416D01*
X26951Y877129D01*
X27083Y876810D01*
X27150Y876472D01*
X27150Y876128D01*
X895830Y876128D02*
X895763Y875790D01*
X895631Y875471D01*
X895439Y875184D01*
X895196Y874941D01*
X894909Y874749D01*
X894590Y874617D01*
X894252Y874550D01*
X893908Y874550D01*
X893570Y874617D01*
X893251Y874749D01*
X892964Y874941D01*
X892721Y875184D01*
X892529Y875471D01*
X892397Y875790D01*
X892330Y876128D01*
X892330Y876472D01*
X892397Y876810D01*
X892529Y877129D01*
X892721Y877416D01*
X892964Y877659D01*
X893251Y877851D01*
X893570Y877983D01*
X893908Y878050D01*
X894252Y878050D01*
X894590Y877983D01*
X894909Y877851D01*
X895196Y877659D01*
X895439Y877416D01*
X895631Y877129D01*
X895763Y876810D01*
X895830Y876472D01*
X895830Y876128D01*
X83660Y75763D02*
X83584Y74894D01*
X83432Y74034D01*
X83206Y73190D01*
X82908Y72370D01*
X82539Y71578D01*
X82102Y70822D01*
X81601Y70107D01*
X81040Y69438D01*
X80422Y68820D01*
X79753Y68259D01*
X79038Y67758D01*
X78282Y67321D01*
X77490Y66952D01*
X76670Y66654D01*
X75826Y66428D01*
X74967Y66276D01*
X74097Y66200D01*
X73223Y66200D01*
X72354Y66276D01*
X71494Y66428D01*
X70650Y66654D01*
X69830Y66952D01*
X69038Y67321D01*
X68282Y67758D01*
X67567Y68259D01*
X66898Y68820D01*
X66280Y69438D01*
X65719Y70107D01*
X65218Y70822D01*
X64781Y71578D01*
X64412Y72370D01*
X64114Y73190D01*
X63888Y74034D01*
X63736Y74894D01*
X63660Y75763D01*
X63660Y76637D01*
X63736Y77507D01*
X63888Y78366D01*
X64114Y79210D01*
X64412Y80030D01*
X64781Y80822D01*
X65218Y81578D01*
X65719Y82293D01*
X66280Y82962D01*
X66898Y83580D01*
X67567Y84141D01*
X68282Y84642D01*
X69038Y85079D01*
X69830Y85448D01*
X70650Y85746D01*
X71494Y85972D01*
X72354Y86124D01*
X73223Y86200D01*
X74097Y86200D01*
X74967Y86124D01*
X75826Y85972D01*
X76670Y85746D01*
X77490Y85448D01*
X78282Y85079D01*
X79038Y84642D01*
X79753Y84141D01*
X80422Y83580D01*
X81040Y82962D01*
X81601Y82293D01*
X82102Y81578D01*
X82539Y80822D01*
X82908Y80030D01*
X83206Y79210D01*
X83432Y78366D01*
X83584Y77507D01*
X83660Y76637D01*
X83660Y75763D01*
X520540Y75763D02*
X520464Y74894D01*
X520312Y74034D01*
X520086Y73190D01*
X519788Y72370D01*
X519419Y71578D01*
X518982Y70822D01*
X518481Y70107D01*
X517920Y69438D01*
X517302Y68820D01*
X516633Y68259D01*
X515918Y67758D01*
X515162Y67321D01*
X514370Y66952D01*
X513550Y66654D01*
X512706Y66428D01*
X511847Y66276D01*
X510977Y66200D01*
X510103Y66200D01*
X509234Y66276D01*
X508374Y66428D01*
X507530Y66654D01*
X506710Y66952D01*
X505918Y67321D01*
X505162Y67758D01*
X504447Y68259D01*
X503778Y68820D01*
X503160Y69438D01*
X502599Y70107D01*
X502098Y70822D01*
X501661Y71578D01*
X501292Y72370D01*
X500994Y73190D01*
X500768Y74034D01*
X500616Y74894D01*
X500540Y75763D01*
X500540Y76637D01*
X500616Y77507D01*
X500768Y78366D01*
X500994Y79210D01*
X501292Y80030D01*
X501661Y80822D01*
X502098Y81578D01*
X502599Y82293D01*
X503160Y82962D01*
X503778Y83580D01*
X504447Y84141D01*
X505162Y84642D01*
X505918Y85079D01*
X506710Y85448D01*
X507530Y85746D01*
X508374Y85972D01*
X509234Y86124D01*
X510103Y86200D01*
X510977Y86200D01*
X511847Y86124D01*
X512706Y85972D01*
X513550Y85746D01*
X514370Y85448D01*
X515162Y85079D01*
X515918Y84642D01*
X516633Y84141D01*
X517302Y83580D01*
X517920Y82962D01*
X518481Y82293D01*
X518982Y81578D01*
X519419Y80822D01*
X519788Y80030D01*
X520086Y79210D01*
X520312Y78366D01*
X520464Y77507D01*
X520540Y76637D01*
X520540Y75763D01*
X83660Y304363D02*
X83584Y303494D01*
X83432Y302634D01*
X83206Y301790D01*
X82908Y300970D01*
X82539Y300178D01*
X82102Y299422D01*
X81601Y298707D01*
X81040Y298038D01*
X80422Y297420D01*
X79753Y296859D01*
X79038Y296358D01*
X78282Y295921D01*
X77490Y295552D01*
X76670Y295254D01*
X75826Y295028D01*
X74967Y294876D01*
X74097Y294800D01*
X73223Y294800D01*
X72354Y294876D01*
X71494Y295028D01*
X70650Y295254D01*
X69830Y295552D01*
X69038Y295921D01*
X68282Y296358D01*
X67567Y296859D01*
X66898Y297420D01*
X66280Y298038D01*
X65719Y298707D01*
X65218Y299422D01*
X64781Y300178D01*
X64412Y300970D01*
X64114Y301790D01*
X63888Y302634D01*
X63736Y303494D01*
X63660Y304363D01*
X63660Y305237D01*
X63736Y306107D01*
X63888Y306966D01*
X64114Y307810D01*
X64412Y308630D01*
X64781Y309422D01*
X65218Y310178D01*
X65719Y310893D01*
X66280Y311562D01*
X66898Y312180D01*
X67567Y312741D01*
X68282Y313242D01*
X69038Y313679D01*
X69830Y314048D01*
X70650Y314346D01*
X71494Y314572D01*
X72354Y314724D01*
X73223Y314800D01*
X74097Y314800D01*
X74967Y314724D01*
X75826Y314572D01*
X76670Y314346D01*
X77490Y314048D01*
X78282Y313679D01*
X79038Y313242D01*
X79753Y312741D01*
X80422Y312180D01*
X81040Y311562D01*
X81601Y310893D01*
X82102Y310178D01*
X82539Y309422D01*
X82908Y308630D01*
X83206Y307810D01*
X83432Y306966D01*
X83584Y306107D01*
X83660Y305237D01*
X83660Y304363D01*
X520540Y304363D02*
X520464Y303494D01*
X520312Y302634D01*
X520086Y301790D01*
X519788Y300970D01*
X519419Y300178D01*
X518982Y299422D01*
X518481Y298707D01*
X517920Y298038D01*
X517302Y297420D01*
X516633Y296859D01*
X515918Y296358D01*
X515162Y295921D01*
X514370Y295552D01*
X513550Y295254D01*
X512706Y295028D01*
X511847Y294876D01*
X510977Y294800D01*
X510103Y294800D01*
X509234Y294876D01*
X508374Y295028D01*
X507530Y295254D01*
X506710Y295552D01*
X505918Y295921D01*
X505162Y296358D01*
X504447Y296859D01*
X503778Y297420D01*
X503160Y298038D01*
X502599Y298707D01*
X502098Y299422D01*
X501661Y300178D01*
X501292Y300970D01*
X500994Y301790D01*
X500768Y302634D01*
X500616Y303494D01*
X500540Y304363D01*
X500540Y305237D01*
X500616Y306107D01*
X500768Y306966D01*
X500994Y307810D01*
X501292Y308630D01*
X501661Y309422D01*
X502098Y310178D01*
X502599Y310893D01*
X503160Y311562D01*
X503778Y312180D01*
X504447Y312741D01*
X505162Y313242D01*
X505918Y313679D01*
X506710Y314048D01*
X507530Y314346D01*
X508374Y314572D01*
X509234Y314724D01*
X510103Y314800D01*
X510977Y314800D01*
X511847Y314724D01*
X512706Y314572D01*
X513550Y314346D01*
X514370Y314048D01*
X515162Y313679D01*
X515918Y313242D01*
X516633Y312741D01*
X517302Y312180D01*
X517920Y311562D01*
X518481Y310893D01*
X518982Y310178D01*
X519419Y309422D01*
X519788Y308630D01*
X520086Y307810D01*
X520312Y306966D01*
X520464Y306107D01*
X520540Y305237D01*
X520540Y304363D01*
X274920Y732449D02*
X274843Y731470D01*
X274689Y730500D01*
X274460Y729544D01*
X274156Y728610D01*
X273781Y727703D01*
X273335Y726828D01*
X272821Y725990D01*
X272244Y725195D01*
X271606Y724448D01*
X270912Y723754D01*
X270165Y723116D01*
X269370Y722539D01*
X268532Y722025D01*
X267657Y721579D01*
X266750Y721204D01*
X265816Y720900D01*
X264861Y720671D01*
X263890Y720517D01*
X262911Y720440D01*
X261929Y720440D01*
X260950Y720517D01*
X259980Y720671D01*
X259024Y720900D01*
X258090Y721204D01*
X257183Y721579D01*
X256308Y722025D01*
X255470Y722539D01*
X254675Y723116D01*
X253928Y723754D01*
X253234Y724448D01*
X252596Y725195D01*
X252019Y725990D01*
X251505Y726828D01*
X251059Y727703D01*
X250684Y728610D01*
X250380Y729544D01*
X250151Y730500D01*
X249997Y731470D01*
X249920Y732449D01*
X249920Y733431D01*
X249997Y734410D01*
X250151Y735381D01*
X250380Y736336D01*
X250684Y737270D01*
X251059Y738177D01*
X251505Y739052D01*
X252019Y739890D01*
X252596Y740685D01*
X253234Y741432D01*
X253928Y742126D01*
X254675Y742764D01*
X255470Y743341D01*
X256308Y743855D01*
X257183Y744301D01*
X258090Y744676D01*
X259024Y744980D01*
X259980Y745209D01*
X260950Y745363D01*
X261929Y745440D01*
X262911Y745440D01*
X263890Y745363D01*
X264861Y745209D01*
X265816Y744980D01*
X266750Y744676D01*
X267657Y744301D01*
X268532Y743855D01*
X269370Y743341D01*
X270165Y742764D01*
X270912Y742126D01*
X271606Y741432D01*
X272244Y740685D01*
X272821Y739890D01*
X273335Y739052D01*
X273781Y738177D01*
X274156Y737270D01*
X274460Y736336D01*
X274689Y735381D01*
X274843Y734410D01*
X274920Y733431D01*
X274920Y732449D01*
X374920Y732449D02*
X374843Y731470D01*
X374689Y730500D01*
X374460Y729544D01*
X374156Y728610D01*
X373781Y727703D01*
X373335Y726828D01*
X372821Y725990D01*
X372244Y725195D01*
X371606Y724448D01*
X370912Y723754D01*
X370165Y723116D01*
X369370Y722539D01*
X368532Y722025D01*
X367657Y721579D01*
X366750Y721204D01*
X365816Y720900D01*
X364861Y720671D01*
X363890Y720517D01*
X362911Y720440D01*
X361929Y720440D01*
X360950Y720517D01*
X359980Y720671D01*
X359024Y720900D01*
X358090Y721204D01*
X357183Y721579D01*
X356308Y722025D01*
X355470Y722539D01*
X354675Y723116D01*
X353928Y723754D01*
X353234Y724448D01*
X352596Y725195D01*
X352019Y725990D01*
X351505Y726828D01*
X351059Y727703D01*
X350684Y728610D01*
X350380Y729544D01*
X350151Y730500D01*
X349997Y731470D01*
X349920Y732449D01*
X349920Y733431D01*
X349997Y734410D01*
X350151Y735381D01*
X350380Y736336D01*
X350684Y737270D01*
X351059Y738177D01*
X351505Y739052D01*
X352019Y739890D01*
X352596Y740685D01*
X353234Y741432D01*
X353928Y742126D01*
X354675Y742764D01*
X355470Y743341D01*
X356308Y743855D01*
X357183Y744301D01*
X358090Y744676D01*
X359024Y744980D01*
X359980Y745209D01*
X360950Y745363D01*
X361929Y745440D01*
X362911Y745440D01*
X363890Y745363D01*
X364861Y745209D01*
X365816Y744980D01*
X366750Y744676D01*
X367657Y744301D01*
X368532Y743855D01*
X369370Y743341D01*
X370165Y742764D01*
X370912Y742126D01*
X371606Y741432D01*
X372244Y740685D01*
X372821Y739890D01*
X373335Y739052D01*
X373781Y738177D01*
X374156Y737270D01*
X374460Y736336D01*
X374689Y735381D01*
X374843Y734410D01*
X374920Y733431D01*
X374920Y732449D01*
M02*
