G04 EAGLE Gerber RS-274X export*
G75*
%MOMM*%
%FSLAX34Y34*%
%LPD*%
%INSilkscreen Top*%
%IPPOS*%
%AMOC8*
5,1,8,0,0,1.08239X$1,22.5*%
G01*
%ADD10C,0.203200*%
%ADD11C,0.152400*%
%ADD12C,0.101600*%
%ADD13R,0.711200X0.406400*%
%ADD14C,0.076200*%
%ADD15C,0.508000*%
%ADD16C,0.127000*%
%ADD17C,0.254000*%


D10*
X499025Y34544D02*
X499025Y22296D01*
X499026Y22296D02*
X499024Y22179D01*
X499018Y22062D01*
X499008Y21946D01*
X498995Y21829D01*
X498977Y21714D01*
X498956Y21599D01*
X498931Y21485D01*
X498902Y21371D01*
X498869Y21259D01*
X498832Y21148D01*
X498792Y21038D01*
X498748Y20930D01*
X498701Y20823D01*
X498650Y20717D01*
X498595Y20614D01*
X498537Y20512D01*
X498476Y20413D01*
X498412Y20315D01*
X498344Y20220D01*
X498273Y20127D01*
X498199Y20036D01*
X498122Y19948D01*
X498042Y19863D01*
X497959Y19780D01*
X497874Y19700D01*
X497786Y19623D01*
X497695Y19549D01*
X497602Y19478D01*
X497507Y19410D01*
X497409Y19346D01*
X497310Y19285D01*
X497208Y19227D01*
X497105Y19172D01*
X496999Y19121D01*
X496892Y19074D01*
X496784Y19030D01*
X496674Y18990D01*
X496563Y18953D01*
X496451Y18920D01*
X496337Y18891D01*
X496223Y18866D01*
X496108Y18845D01*
X495992Y18827D01*
X495876Y18814D01*
X495760Y18804D01*
X495643Y18798D01*
X495526Y18796D01*
X493776Y18796D01*
X506921Y18796D02*
X506921Y34544D01*
X513920Y34544D01*
X513920Y27545D02*
X506921Y27545D01*
X523243Y34544D02*
X523243Y18796D01*
X518869Y34544D02*
X527618Y34544D01*
X537832Y34544D02*
X532583Y18796D01*
X543082Y18796D02*
X537832Y34544D01*
X541769Y22733D02*
X533895Y22733D01*
D11*
X216267Y18542D02*
X212654Y18542D01*
X212536Y18544D01*
X212418Y18550D01*
X212300Y18559D01*
X212183Y18573D01*
X212066Y18590D01*
X211949Y18611D01*
X211834Y18636D01*
X211719Y18665D01*
X211605Y18698D01*
X211493Y18734D01*
X211382Y18774D01*
X211272Y18817D01*
X211163Y18864D01*
X211056Y18914D01*
X210951Y18969D01*
X210848Y19026D01*
X210747Y19087D01*
X210647Y19151D01*
X210550Y19218D01*
X210455Y19288D01*
X210363Y19362D01*
X210272Y19438D01*
X210185Y19518D01*
X210100Y19600D01*
X210018Y19685D01*
X209938Y19772D01*
X209862Y19863D01*
X209788Y19955D01*
X209718Y20050D01*
X209651Y20147D01*
X209587Y20247D01*
X209526Y20348D01*
X209469Y20451D01*
X209414Y20556D01*
X209364Y20663D01*
X209317Y20772D01*
X209274Y20882D01*
X209234Y20993D01*
X209198Y21105D01*
X209165Y21219D01*
X209136Y21334D01*
X209111Y21449D01*
X209090Y21566D01*
X209073Y21683D01*
X209059Y21800D01*
X209050Y21918D01*
X209044Y22036D01*
X209042Y22154D01*
X209042Y31186D01*
X209044Y31304D01*
X209050Y31422D01*
X209059Y31540D01*
X209073Y31657D01*
X209090Y31774D01*
X209111Y31891D01*
X209136Y32006D01*
X209165Y32121D01*
X209198Y32235D01*
X209234Y32347D01*
X209274Y32458D01*
X209317Y32568D01*
X209364Y32677D01*
X209414Y32784D01*
X209468Y32889D01*
X209526Y32992D01*
X209587Y33093D01*
X209651Y33193D01*
X209718Y33290D01*
X209788Y33385D01*
X209862Y33477D01*
X209938Y33568D01*
X210018Y33655D01*
X210100Y33740D01*
X210185Y33822D01*
X210272Y33902D01*
X210363Y33978D01*
X210455Y34052D01*
X210550Y34122D01*
X210647Y34189D01*
X210747Y34253D01*
X210848Y34314D01*
X210951Y34371D01*
X211056Y34425D01*
X211163Y34476D01*
X211272Y34523D01*
X211382Y34566D01*
X211493Y34606D01*
X211605Y34642D01*
X211719Y34675D01*
X211834Y34704D01*
X211949Y34729D01*
X212066Y34750D01*
X212183Y34767D01*
X212300Y34781D01*
X212418Y34790D01*
X212536Y34796D01*
X212654Y34798D01*
X216267Y34798D01*
X222108Y30282D02*
X222108Y23058D01*
X222107Y30282D02*
X222109Y30415D01*
X222115Y30547D01*
X222125Y30679D01*
X222138Y30811D01*
X222156Y30943D01*
X222177Y31073D01*
X222202Y31204D01*
X222231Y31333D01*
X222264Y31461D01*
X222300Y31589D01*
X222340Y31715D01*
X222384Y31840D01*
X222432Y31964D01*
X222483Y32086D01*
X222538Y32207D01*
X222596Y32326D01*
X222658Y32444D01*
X222723Y32559D01*
X222792Y32673D01*
X222863Y32784D01*
X222939Y32893D01*
X223017Y33000D01*
X223098Y33105D01*
X223183Y33207D01*
X223270Y33307D01*
X223360Y33404D01*
X223453Y33499D01*
X223549Y33590D01*
X223647Y33679D01*
X223748Y33765D01*
X223852Y33848D01*
X223958Y33928D01*
X224066Y34004D01*
X224176Y34078D01*
X224289Y34148D01*
X224403Y34215D01*
X224520Y34278D01*
X224638Y34338D01*
X224758Y34395D01*
X224880Y34448D01*
X225003Y34497D01*
X225127Y34543D01*
X225253Y34585D01*
X225380Y34623D01*
X225508Y34658D01*
X225637Y34689D01*
X225766Y34716D01*
X225897Y34739D01*
X226028Y34759D01*
X226160Y34774D01*
X226292Y34786D01*
X226424Y34794D01*
X226557Y34798D01*
X226689Y34798D01*
X226822Y34794D01*
X226954Y34786D01*
X227086Y34774D01*
X227218Y34759D01*
X227349Y34739D01*
X227480Y34716D01*
X227609Y34689D01*
X227738Y34658D01*
X227866Y34623D01*
X227993Y34585D01*
X228119Y34543D01*
X228243Y34497D01*
X228366Y34448D01*
X228488Y34395D01*
X228608Y34338D01*
X228726Y34278D01*
X228843Y34215D01*
X228957Y34148D01*
X229070Y34078D01*
X229180Y34004D01*
X229288Y33928D01*
X229394Y33848D01*
X229498Y33765D01*
X229599Y33679D01*
X229697Y33590D01*
X229793Y33499D01*
X229886Y33404D01*
X229976Y33307D01*
X230063Y33207D01*
X230148Y33105D01*
X230229Y33000D01*
X230307Y32893D01*
X230383Y32784D01*
X230454Y32673D01*
X230523Y32559D01*
X230588Y32444D01*
X230650Y32326D01*
X230708Y32207D01*
X230763Y32086D01*
X230814Y31964D01*
X230862Y31840D01*
X230906Y31715D01*
X230946Y31589D01*
X230982Y31461D01*
X231015Y31333D01*
X231044Y31204D01*
X231069Y31073D01*
X231090Y30943D01*
X231108Y30811D01*
X231121Y30679D01*
X231131Y30547D01*
X231137Y30415D01*
X231139Y30282D01*
X231139Y23058D01*
X231137Y22925D01*
X231131Y22793D01*
X231121Y22661D01*
X231108Y22529D01*
X231090Y22397D01*
X231069Y22267D01*
X231044Y22136D01*
X231015Y22007D01*
X230982Y21879D01*
X230946Y21751D01*
X230906Y21625D01*
X230862Y21500D01*
X230814Y21376D01*
X230763Y21254D01*
X230708Y21133D01*
X230650Y21014D01*
X230588Y20896D01*
X230523Y20781D01*
X230454Y20667D01*
X230383Y20556D01*
X230307Y20447D01*
X230229Y20340D01*
X230148Y20235D01*
X230063Y20133D01*
X229976Y20033D01*
X229886Y19936D01*
X229793Y19841D01*
X229697Y19750D01*
X229599Y19661D01*
X229498Y19575D01*
X229394Y19492D01*
X229288Y19412D01*
X229180Y19336D01*
X229070Y19262D01*
X228957Y19192D01*
X228843Y19125D01*
X228726Y19062D01*
X228608Y19002D01*
X228488Y18945D01*
X228366Y18892D01*
X228243Y18843D01*
X228119Y18797D01*
X227993Y18755D01*
X227866Y18717D01*
X227738Y18682D01*
X227609Y18651D01*
X227480Y18624D01*
X227349Y18601D01*
X227218Y18581D01*
X227086Y18566D01*
X226954Y18554D01*
X226822Y18546D01*
X226689Y18542D01*
X226557Y18542D01*
X226424Y18546D01*
X226292Y18554D01*
X226160Y18566D01*
X226028Y18581D01*
X225897Y18601D01*
X225766Y18624D01*
X225637Y18651D01*
X225508Y18682D01*
X225380Y18717D01*
X225253Y18755D01*
X225127Y18797D01*
X225003Y18843D01*
X224880Y18892D01*
X224758Y18945D01*
X224638Y19002D01*
X224520Y19062D01*
X224403Y19125D01*
X224289Y19192D01*
X224176Y19262D01*
X224066Y19336D01*
X223958Y19412D01*
X223852Y19492D01*
X223748Y19575D01*
X223647Y19661D01*
X223549Y19750D01*
X223453Y19841D01*
X223360Y19936D01*
X223270Y20033D01*
X223183Y20133D01*
X223098Y20235D01*
X223017Y20340D01*
X222939Y20447D01*
X222863Y20556D01*
X222792Y20667D01*
X222723Y20781D01*
X222658Y20896D01*
X222596Y21014D01*
X222538Y21133D01*
X222483Y21254D01*
X222432Y21376D01*
X222384Y21500D01*
X222340Y21625D01*
X222300Y21751D01*
X222264Y21879D01*
X222231Y22007D01*
X222202Y22136D01*
X222177Y22267D01*
X222156Y22397D01*
X222138Y22529D01*
X222125Y22661D01*
X222115Y22793D01*
X222109Y22925D01*
X222107Y23058D01*
X238290Y18542D02*
X238290Y34798D01*
X238290Y18542D02*
X245514Y18542D01*
X251286Y23058D02*
X251286Y30282D01*
X251285Y30282D02*
X251287Y30415D01*
X251293Y30547D01*
X251303Y30679D01*
X251316Y30811D01*
X251334Y30943D01*
X251355Y31073D01*
X251380Y31204D01*
X251409Y31333D01*
X251442Y31461D01*
X251478Y31589D01*
X251518Y31715D01*
X251562Y31840D01*
X251610Y31964D01*
X251661Y32086D01*
X251716Y32207D01*
X251774Y32326D01*
X251836Y32444D01*
X251901Y32559D01*
X251970Y32673D01*
X252041Y32784D01*
X252117Y32893D01*
X252195Y33000D01*
X252276Y33105D01*
X252361Y33207D01*
X252448Y33307D01*
X252538Y33404D01*
X252631Y33499D01*
X252727Y33590D01*
X252825Y33679D01*
X252926Y33765D01*
X253030Y33848D01*
X253136Y33928D01*
X253244Y34004D01*
X253354Y34078D01*
X253467Y34148D01*
X253581Y34215D01*
X253698Y34278D01*
X253816Y34338D01*
X253936Y34395D01*
X254058Y34448D01*
X254181Y34497D01*
X254305Y34543D01*
X254431Y34585D01*
X254558Y34623D01*
X254686Y34658D01*
X254815Y34689D01*
X254944Y34716D01*
X255075Y34739D01*
X255206Y34759D01*
X255338Y34774D01*
X255470Y34786D01*
X255602Y34794D01*
X255735Y34798D01*
X255867Y34798D01*
X256000Y34794D01*
X256132Y34786D01*
X256264Y34774D01*
X256396Y34759D01*
X256527Y34739D01*
X256658Y34716D01*
X256787Y34689D01*
X256916Y34658D01*
X257044Y34623D01*
X257171Y34585D01*
X257297Y34543D01*
X257421Y34497D01*
X257544Y34448D01*
X257666Y34395D01*
X257786Y34338D01*
X257904Y34278D01*
X258021Y34215D01*
X258135Y34148D01*
X258248Y34078D01*
X258358Y34004D01*
X258466Y33928D01*
X258572Y33848D01*
X258676Y33765D01*
X258777Y33679D01*
X258875Y33590D01*
X258971Y33499D01*
X259064Y33404D01*
X259154Y33307D01*
X259241Y33207D01*
X259326Y33105D01*
X259407Y33000D01*
X259485Y32893D01*
X259561Y32784D01*
X259632Y32673D01*
X259701Y32559D01*
X259766Y32444D01*
X259828Y32326D01*
X259886Y32207D01*
X259941Y32086D01*
X259992Y31964D01*
X260040Y31840D01*
X260084Y31715D01*
X260124Y31589D01*
X260160Y31461D01*
X260193Y31333D01*
X260222Y31204D01*
X260247Y31073D01*
X260268Y30943D01*
X260286Y30811D01*
X260299Y30679D01*
X260309Y30547D01*
X260315Y30415D01*
X260317Y30282D01*
X260317Y23058D01*
X260315Y22925D01*
X260309Y22793D01*
X260299Y22661D01*
X260286Y22529D01*
X260268Y22397D01*
X260247Y22267D01*
X260222Y22136D01*
X260193Y22007D01*
X260160Y21879D01*
X260124Y21751D01*
X260084Y21625D01*
X260040Y21500D01*
X259992Y21376D01*
X259941Y21254D01*
X259886Y21133D01*
X259828Y21014D01*
X259766Y20896D01*
X259701Y20781D01*
X259632Y20667D01*
X259561Y20556D01*
X259485Y20447D01*
X259407Y20340D01*
X259326Y20235D01*
X259241Y20133D01*
X259154Y20033D01*
X259064Y19936D01*
X258971Y19841D01*
X258875Y19750D01*
X258777Y19661D01*
X258676Y19575D01*
X258572Y19492D01*
X258466Y19412D01*
X258358Y19336D01*
X258248Y19262D01*
X258135Y19192D01*
X258021Y19125D01*
X257904Y19062D01*
X257786Y19002D01*
X257666Y18945D01*
X257544Y18892D01*
X257421Y18843D01*
X257297Y18797D01*
X257171Y18755D01*
X257044Y18717D01*
X256916Y18682D01*
X256787Y18651D01*
X256658Y18624D01*
X256527Y18601D01*
X256396Y18581D01*
X256264Y18566D01*
X256132Y18554D01*
X256000Y18546D01*
X255867Y18542D01*
X255735Y18542D01*
X255602Y18546D01*
X255470Y18554D01*
X255338Y18566D01*
X255206Y18581D01*
X255075Y18601D01*
X254944Y18624D01*
X254815Y18651D01*
X254686Y18682D01*
X254558Y18717D01*
X254431Y18755D01*
X254305Y18797D01*
X254181Y18843D01*
X254058Y18892D01*
X253936Y18945D01*
X253816Y19002D01*
X253698Y19062D01*
X253581Y19125D01*
X253467Y19192D01*
X253354Y19262D01*
X253244Y19336D01*
X253136Y19412D01*
X253030Y19492D01*
X252926Y19575D01*
X252825Y19661D01*
X252727Y19750D01*
X252631Y19841D01*
X252538Y19936D01*
X252448Y20033D01*
X252361Y20133D01*
X252276Y20235D01*
X252195Y20340D01*
X252117Y20447D01*
X252041Y20556D01*
X251970Y20667D01*
X251901Y20781D01*
X251836Y20896D01*
X251774Y21014D01*
X251716Y21133D01*
X251661Y21254D01*
X251610Y21376D01*
X251562Y21500D01*
X251518Y21625D01*
X251478Y21751D01*
X251442Y21879D01*
X251409Y22007D01*
X251380Y22136D01*
X251355Y22267D01*
X251334Y22397D01*
X251316Y22529D01*
X251303Y22661D01*
X251293Y22793D01*
X251287Y22925D01*
X251285Y23058D01*
X267530Y18542D02*
X267530Y34798D01*
X272045Y34798D01*
X272178Y34796D01*
X272310Y34790D01*
X272442Y34780D01*
X272574Y34767D01*
X272706Y34749D01*
X272836Y34728D01*
X272967Y34703D01*
X273096Y34674D01*
X273224Y34641D01*
X273352Y34605D01*
X273478Y34565D01*
X273603Y34521D01*
X273727Y34473D01*
X273849Y34422D01*
X273970Y34367D01*
X274089Y34309D01*
X274207Y34247D01*
X274322Y34182D01*
X274436Y34113D01*
X274547Y34042D01*
X274656Y33966D01*
X274763Y33888D01*
X274868Y33807D01*
X274970Y33722D01*
X275070Y33635D01*
X275167Y33545D01*
X275262Y33452D01*
X275353Y33356D01*
X275442Y33258D01*
X275528Y33157D01*
X275611Y33053D01*
X275691Y32947D01*
X275767Y32839D01*
X275841Y32729D01*
X275911Y32616D01*
X275978Y32502D01*
X276041Y32385D01*
X276101Y32267D01*
X276158Y32147D01*
X276211Y32025D01*
X276260Y31902D01*
X276306Y31778D01*
X276348Y31652D01*
X276386Y31525D01*
X276421Y31397D01*
X276452Y31268D01*
X276479Y31139D01*
X276502Y31008D01*
X276522Y30877D01*
X276537Y30745D01*
X276549Y30613D01*
X276557Y30481D01*
X276561Y30348D01*
X276561Y30216D01*
X276557Y30083D01*
X276549Y29951D01*
X276537Y29819D01*
X276522Y29687D01*
X276502Y29556D01*
X276479Y29425D01*
X276452Y29296D01*
X276421Y29167D01*
X276386Y29039D01*
X276348Y28912D01*
X276306Y28786D01*
X276260Y28662D01*
X276211Y28539D01*
X276158Y28417D01*
X276101Y28297D01*
X276041Y28179D01*
X275978Y28062D01*
X275911Y27948D01*
X275841Y27835D01*
X275767Y27725D01*
X275691Y27617D01*
X275611Y27511D01*
X275528Y27407D01*
X275442Y27306D01*
X275353Y27208D01*
X275262Y27112D01*
X275167Y27019D01*
X275070Y26929D01*
X274970Y26842D01*
X274868Y26757D01*
X274763Y26676D01*
X274656Y26598D01*
X274547Y26522D01*
X274436Y26451D01*
X274322Y26382D01*
X274207Y26317D01*
X274089Y26255D01*
X273970Y26197D01*
X273849Y26142D01*
X273727Y26091D01*
X273603Y26043D01*
X273478Y25999D01*
X273352Y25959D01*
X273224Y25923D01*
X273096Y25890D01*
X272967Y25861D01*
X272836Y25836D01*
X272706Y25815D01*
X272574Y25797D01*
X272442Y25784D01*
X272310Y25774D01*
X272178Y25768D01*
X272045Y25766D01*
X272045Y25767D02*
X267530Y25767D01*
X272948Y25767D02*
X276561Y18542D01*
X283620Y18542D02*
X283620Y34798D01*
X290845Y34798D01*
X290845Y27573D02*
X283620Y27573D01*
X297137Y23058D02*
X297137Y34798D01*
X297137Y23058D02*
X297139Y22925D01*
X297145Y22793D01*
X297155Y22661D01*
X297168Y22529D01*
X297186Y22397D01*
X297207Y22267D01*
X297232Y22136D01*
X297261Y22007D01*
X297294Y21879D01*
X297330Y21751D01*
X297370Y21625D01*
X297414Y21500D01*
X297462Y21376D01*
X297513Y21254D01*
X297568Y21133D01*
X297626Y21014D01*
X297688Y20896D01*
X297753Y20781D01*
X297822Y20667D01*
X297893Y20556D01*
X297969Y20447D01*
X298047Y20340D01*
X298128Y20235D01*
X298213Y20133D01*
X298300Y20033D01*
X298390Y19936D01*
X298483Y19841D01*
X298579Y19750D01*
X298677Y19661D01*
X298778Y19575D01*
X298882Y19492D01*
X298988Y19412D01*
X299096Y19336D01*
X299206Y19262D01*
X299319Y19192D01*
X299433Y19125D01*
X299550Y19062D01*
X299668Y19002D01*
X299788Y18945D01*
X299910Y18892D01*
X300033Y18843D01*
X300157Y18797D01*
X300283Y18755D01*
X300410Y18717D01*
X300538Y18682D01*
X300667Y18651D01*
X300796Y18624D01*
X300927Y18601D01*
X301058Y18581D01*
X301190Y18566D01*
X301322Y18554D01*
X301454Y18546D01*
X301587Y18542D01*
X301719Y18542D01*
X301852Y18546D01*
X301984Y18554D01*
X302116Y18566D01*
X302248Y18581D01*
X302379Y18601D01*
X302510Y18624D01*
X302639Y18651D01*
X302768Y18682D01*
X302896Y18717D01*
X303023Y18755D01*
X303149Y18797D01*
X303273Y18843D01*
X303396Y18892D01*
X303518Y18945D01*
X303638Y19002D01*
X303756Y19062D01*
X303873Y19125D01*
X303987Y19192D01*
X304100Y19262D01*
X304210Y19336D01*
X304318Y19412D01*
X304424Y19492D01*
X304528Y19575D01*
X304629Y19661D01*
X304727Y19750D01*
X304823Y19841D01*
X304916Y19936D01*
X305006Y20033D01*
X305093Y20133D01*
X305178Y20235D01*
X305259Y20340D01*
X305337Y20447D01*
X305413Y20556D01*
X305484Y20667D01*
X305553Y20781D01*
X305618Y20896D01*
X305680Y21014D01*
X305738Y21133D01*
X305793Y21254D01*
X305844Y21376D01*
X305892Y21500D01*
X305936Y21625D01*
X305976Y21751D01*
X306012Y21879D01*
X306045Y22007D01*
X306074Y22136D01*
X306099Y22267D01*
X306120Y22397D01*
X306138Y22529D01*
X306151Y22661D01*
X306161Y22793D01*
X306167Y22925D01*
X306169Y23058D01*
X306169Y34798D01*
X313841Y34798D02*
X313841Y18542D01*
X321065Y18542D01*
X338647Y18542D02*
X338647Y34798D01*
X343162Y34798D02*
X334131Y34798D01*
X349242Y34798D02*
X349242Y23058D01*
X349241Y23058D02*
X349243Y22925D01*
X349249Y22793D01*
X349259Y22661D01*
X349272Y22529D01*
X349290Y22397D01*
X349311Y22267D01*
X349336Y22136D01*
X349365Y22007D01*
X349398Y21879D01*
X349434Y21751D01*
X349474Y21625D01*
X349518Y21500D01*
X349566Y21376D01*
X349617Y21254D01*
X349672Y21133D01*
X349730Y21014D01*
X349792Y20896D01*
X349857Y20781D01*
X349926Y20667D01*
X349997Y20556D01*
X350073Y20447D01*
X350151Y20340D01*
X350232Y20235D01*
X350317Y20133D01*
X350404Y20033D01*
X350494Y19936D01*
X350587Y19841D01*
X350683Y19750D01*
X350781Y19661D01*
X350882Y19575D01*
X350986Y19492D01*
X351092Y19412D01*
X351200Y19336D01*
X351310Y19262D01*
X351423Y19192D01*
X351537Y19125D01*
X351654Y19062D01*
X351772Y19002D01*
X351892Y18945D01*
X352014Y18892D01*
X352137Y18843D01*
X352261Y18797D01*
X352387Y18755D01*
X352514Y18717D01*
X352642Y18682D01*
X352771Y18651D01*
X352900Y18624D01*
X353031Y18601D01*
X353162Y18581D01*
X353294Y18566D01*
X353426Y18554D01*
X353558Y18546D01*
X353691Y18542D01*
X353823Y18542D01*
X353956Y18546D01*
X354088Y18554D01*
X354220Y18566D01*
X354352Y18581D01*
X354483Y18601D01*
X354614Y18624D01*
X354743Y18651D01*
X354872Y18682D01*
X355000Y18717D01*
X355127Y18755D01*
X355253Y18797D01*
X355377Y18843D01*
X355500Y18892D01*
X355622Y18945D01*
X355742Y19002D01*
X355860Y19062D01*
X355977Y19125D01*
X356091Y19192D01*
X356204Y19262D01*
X356314Y19336D01*
X356422Y19412D01*
X356528Y19492D01*
X356632Y19575D01*
X356733Y19661D01*
X356831Y19750D01*
X356927Y19841D01*
X357020Y19936D01*
X357110Y20033D01*
X357197Y20133D01*
X357282Y20235D01*
X357363Y20340D01*
X357441Y20447D01*
X357517Y20556D01*
X357588Y20667D01*
X357657Y20781D01*
X357722Y20896D01*
X357784Y21014D01*
X357842Y21133D01*
X357897Y21254D01*
X357948Y21376D01*
X357996Y21500D01*
X358040Y21625D01*
X358080Y21751D01*
X358116Y21879D01*
X358149Y22007D01*
X358178Y22136D01*
X358203Y22267D01*
X358224Y22397D01*
X358242Y22529D01*
X358255Y22661D01*
X358265Y22793D01*
X358271Y22925D01*
X358273Y23058D01*
X358273Y34798D01*
X365915Y34798D02*
X365915Y18542D01*
X374946Y18542D02*
X365915Y34798D01*
X374946Y34798D02*
X374946Y18542D01*
X382618Y18542D02*
X389843Y18542D01*
X382618Y18542D02*
X382618Y34798D01*
X389843Y34798D01*
X388037Y27573D02*
X382618Y27573D01*
X400512Y18542D02*
X400630Y18544D01*
X400748Y18550D01*
X400866Y18559D01*
X400983Y18573D01*
X401100Y18590D01*
X401217Y18611D01*
X401332Y18636D01*
X401447Y18665D01*
X401561Y18698D01*
X401673Y18734D01*
X401784Y18774D01*
X401894Y18817D01*
X402003Y18864D01*
X402110Y18914D01*
X402215Y18969D01*
X402318Y19026D01*
X402419Y19087D01*
X402519Y19151D01*
X402616Y19218D01*
X402711Y19288D01*
X402803Y19362D01*
X402894Y19438D01*
X402981Y19518D01*
X403066Y19600D01*
X403148Y19685D01*
X403228Y19772D01*
X403304Y19863D01*
X403378Y19955D01*
X403448Y20050D01*
X403515Y20147D01*
X403579Y20247D01*
X403640Y20348D01*
X403697Y20451D01*
X403752Y20556D01*
X403802Y20663D01*
X403849Y20772D01*
X403892Y20882D01*
X403932Y20993D01*
X403968Y21105D01*
X404001Y21219D01*
X404030Y21334D01*
X404055Y21449D01*
X404076Y21566D01*
X404093Y21683D01*
X404107Y21800D01*
X404116Y21918D01*
X404122Y22036D01*
X404124Y22154D01*
X400512Y18542D02*
X400329Y18544D01*
X400147Y18551D01*
X399965Y18562D01*
X399783Y18577D01*
X399601Y18597D01*
X399420Y18620D01*
X399240Y18649D01*
X399060Y18681D01*
X398881Y18718D01*
X398704Y18759D01*
X398527Y18805D01*
X398351Y18854D01*
X398177Y18908D01*
X398003Y18966D01*
X397832Y19028D01*
X397662Y19094D01*
X397493Y19165D01*
X397326Y19239D01*
X397161Y19317D01*
X396998Y19399D01*
X396837Y19485D01*
X396678Y19575D01*
X396521Y19669D01*
X396367Y19766D01*
X396215Y19867D01*
X396065Y19972D01*
X395918Y20080D01*
X395774Y20191D01*
X395632Y20306D01*
X395493Y20425D01*
X395357Y20547D01*
X395224Y20672D01*
X395094Y20800D01*
X395545Y31186D02*
X395547Y31304D01*
X395553Y31422D01*
X395562Y31540D01*
X395576Y31657D01*
X395593Y31774D01*
X395614Y31891D01*
X395639Y32006D01*
X395668Y32121D01*
X395701Y32235D01*
X395737Y32347D01*
X395777Y32458D01*
X395820Y32568D01*
X395867Y32677D01*
X395917Y32784D01*
X395972Y32889D01*
X396029Y32992D01*
X396090Y33093D01*
X396154Y33193D01*
X396221Y33290D01*
X396291Y33385D01*
X396365Y33477D01*
X396441Y33568D01*
X396521Y33655D01*
X396603Y33740D01*
X396688Y33822D01*
X396775Y33902D01*
X396866Y33978D01*
X396958Y34052D01*
X397053Y34122D01*
X397150Y34189D01*
X397250Y34253D01*
X397351Y34314D01*
X397454Y34372D01*
X397559Y34426D01*
X397666Y34476D01*
X397775Y34523D01*
X397885Y34567D01*
X397996Y34606D01*
X398109Y34642D01*
X398222Y34675D01*
X398337Y34704D01*
X398452Y34729D01*
X398569Y34750D01*
X398686Y34767D01*
X398803Y34781D01*
X398921Y34790D01*
X399039Y34796D01*
X399157Y34798D01*
X399318Y34796D01*
X399480Y34790D01*
X399641Y34781D01*
X399802Y34767D01*
X399962Y34750D01*
X400122Y34729D01*
X400282Y34704D01*
X400441Y34675D01*
X400599Y34643D01*
X400756Y34607D01*
X400912Y34567D01*
X401068Y34523D01*
X401222Y34475D01*
X401375Y34424D01*
X401527Y34370D01*
X401678Y34311D01*
X401827Y34250D01*
X401974Y34184D01*
X402120Y34115D01*
X402265Y34043D01*
X402407Y33967D01*
X402548Y33888D01*
X402687Y33806D01*
X402823Y33720D01*
X402958Y33631D01*
X403091Y33539D01*
X403221Y33443D01*
X397351Y28025D02*
X397250Y28087D01*
X397150Y28152D01*
X397053Y28221D01*
X396958Y28293D01*
X396865Y28367D01*
X396775Y28445D01*
X396687Y28526D01*
X396602Y28609D01*
X396520Y28695D01*
X396441Y28784D01*
X396364Y28875D01*
X396291Y28969D01*
X396220Y29065D01*
X396153Y29163D01*
X396089Y29263D01*
X396028Y29366D01*
X395971Y29470D01*
X395917Y29576D01*
X395867Y29684D01*
X395820Y29793D01*
X395776Y29904D01*
X395736Y30016D01*
X395700Y30130D01*
X395668Y30244D01*
X395639Y30360D01*
X395614Y30476D01*
X395593Y30593D01*
X395576Y30711D01*
X395562Y30829D01*
X395553Y30948D01*
X395547Y31067D01*
X395545Y31186D01*
X402318Y25315D02*
X402419Y25253D01*
X402519Y25188D01*
X402616Y25119D01*
X402711Y25047D01*
X402804Y24973D01*
X402894Y24895D01*
X402982Y24814D01*
X403067Y24731D01*
X403149Y24645D01*
X403228Y24556D01*
X403305Y24465D01*
X403378Y24371D01*
X403449Y24275D01*
X403516Y24177D01*
X403580Y24077D01*
X403641Y23974D01*
X403698Y23870D01*
X403752Y23764D01*
X403802Y23656D01*
X403849Y23547D01*
X403893Y23436D01*
X403933Y23324D01*
X403969Y23210D01*
X404001Y23096D01*
X404030Y22980D01*
X404055Y22864D01*
X404076Y22747D01*
X404093Y22629D01*
X404107Y22511D01*
X404116Y22392D01*
X404122Y22273D01*
X404124Y22154D01*
X402318Y25315D02*
X397351Y28025D01*
D10*
X102616Y21336D02*
X102616Y37084D01*
X106990Y37084D01*
X107121Y37082D01*
X107252Y37076D01*
X107382Y37066D01*
X107512Y37053D01*
X107642Y37035D01*
X107771Y37014D01*
X107899Y36988D01*
X108027Y36959D01*
X108154Y36926D01*
X108279Y36890D01*
X108404Y36849D01*
X108527Y36805D01*
X108649Y36757D01*
X108769Y36706D01*
X108888Y36651D01*
X109005Y36592D01*
X109120Y36530D01*
X109233Y36465D01*
X109345Y36396D01*
X109454Y36324D01*
X109561Y36249D01*
X109666Y36170D01*
X109768Y36089D01*
X109868Y36004D01*
X109965Y35916D01*
X110060Y35826D01*
X110152Y35733D01*
X110241Y35637D01*
X110327Y35538D01*
X110410Y35437D01*
X110490Y35334D01*
X110567Y35228D01*
X110640Y35120D01*
X110711Y35009D01*
X110778Y34897D01*
X110842Y34783D01*
X110902Y34667D01*
X110959Y34549D01*
X111012Y34429D01*
X111062Y34308D01*
X111108Y34185D01*
X111150Y34062D01*
X111188Y33937D01*
X111223Y33810D01*
X111254Y33683D01*
X111282Y33555D01*
X111305Y33427D01*
X111324Y33297D01*
X111340Y33167D01*
X111352Y33037D01*
X111360Y32906D01*
X111364Y32775D01*
X111364Y32645D01*
X111360Y32514D01*
X111352Y32383D01*
X111340Y32253D01*
X111324Y32123D01*
X111305Y31993D01*
X111282Y31865D01*
X111254Y31737D01*
X111223Y31610D01*
X111188Y31483D01*
X111150Y31358D01*
X111108Y31235D01*
X111062Y31112D01*
X111012Y30991D01*
X110959Y30871D01*
X110902Y30753D01*
X110842Y30637D01*
X110778Y30523D01*
X110711Y30411D01*
X110640Y30300D01*
X110567Y30192D01*
X110490Y30086D01*
X110410Y29983D01*
X110327Y29882D01*
X110241Y29783D01*
X110152Y29687D01*
X110060Y29594D01*
X109965Y29504D01*
X109868Y29416D01*
X109768Y29331D01*
X109666Y29250D01*
X109561Y29171D01*
X109454Y29096D01*
X109345Y29024D01*
X109233Y28955D01*
X109120Y28890D01*
X109005Y28828D01*
X108888Y28769D01*
X108769Y28714D01*
X108649Y28663D01*
X108527Y28615D01*
X108404Y28571D01*
X108279Y28530D01*
X108154Y28494D01*
X108027Y28461D01*
X107899Y28432D01*
X107771Y28406D01*
X107642Y28385D01*
X107512Y28367D01*
X107382Y28354D01*
X107252Y28344D01*
X107121Y28338D01*
X106990Y28336D01*
X106990Y28335D02*
X102616Y28335D01*
X107865Y28335D02*
X111365Y21336D01*
X118694Y21336D02*
X125693Y21336D01*
X118694Y21336D02*
X118694Y37084D01*
X125693Y37084D01*
X123943Y30085D02*
X118694Y30085D01*
X130809Y37084D02*
X136059Y21336D01*
X141308Y37084D01*
X146563Y22211D02*
X146563Y21336D01*
X146563Y22211D02*
X147438Y22211D01*
X147438Y21336D01*
X146563Y21336D01*
X161904Y33584D02*
X166279Y37084D01*
X166279Y21336D01*
X170653Y21336D02*
X161904Y21336D01*
D11*
X353900Y467900D02*
X353900Y516900D01*
X382600Y516900D01*
X382600Y467900D01*
X353900Y467900D01*
X361488Y492400D02*
X361490Y492575D01*
X361497Y492749D01*
X361507Y492923D01*
X361522Y493097D01*
X361541Y493271D01*
X361565Y493444D01*
X361593Y493616D01*
X361625Y493787D01*
X361661Y493958D01*
X361701Y494128D01*
X361746Y494297D01*
X361794Y494465D01*
X361847Y494631D01*
X361904Y494796D01*
X361965Y494960D01*
X362029Y495122D01*
X362098Y495282D01*
X362171Y495441D01*
X362247Y495598D01*
X362328Y495753D01*
X362412Y495905D01*
X362500Y496056D01*
X362591Y496205D01*
X362687Y496351D01*
X362785Y496495D01*
X362888Y496637D01*
X362993Y496776D01*
X363102Y496912D01*
X363215Y497045D01*
X363330Y497176D01*
X363449Y497304D01*
X363571Y497429D01*
X363696Y497551D01*
X363824Y497670D01*
X363955Y497785D01*
X364088Y497898D01*
X364224Y498007D01*
X364363Y498112D01*
X364505Y498215D01*
X364649Y498313D01*
X364795Y498409D01*
X364944Y498500D01*
X365095Y498588D01*
X365247Y498672D01*
X365402Y498753D01*
X365559Y498829D01*
X365718Y498902D01*
X365878Y498971D01*
X366040Y499035D01*
X366204Y499096D01*
X366369Y499153D01*
X366535Y499206D01*
X366703Y499254D01*
X366872Y499299D01*
X367042Y499339D01*
X367213Y499375D01*
X367384Y499407D01*
X367556Y499435D01*
X367729Y499459D01*
X367903Y499478D01*
X368077Y499493D01*
X368251Y499503D01*
X368425Y499510D01*
X368600Y499512D01*
X368775Y499510D01*
X368949Y499503D01*
X369123Y499493D01*
X369297Y499478D01*
X369471Y499459D01*
X369644Y499435D01*
X369816Y499407D01*
X369987Y499375D01*
X370158Y499339D01*
X370328Y499299D01*
X370497Y499254D01*
X370665Y499206D01*
X370831Y499153D01*
X370996Y499096D01*
X371160Y499035D01*
X371322Y498971D01*
X371482Y498902D01*
X371641Y498829D01*
X371798Y498753D01*
X371953Y498672D01*
X372105Y498588D01*
X372256Y498500D01*
X372405Y498409D01*
X372551Y498313D01*
X372695Y498215D01*
X372837Y498112D01*
X372976Y498007D01*
X373112Y497898D01*
X373245Y497785D01*
X373376Y497670D01*
X373504Y497551D01*
X373629Y497429D01*
X373751Y497304D01*
X373870Y497176D01*
X373985Y497045D01*
X374098Y496912D01*
X374207Y496776D01*
X374312Y496637D01*
X374415Y496495D01*
X374513Y496351D01*
X374609Y496205D01*
X374700Y496056D01*
X374788Y495905D01*
X374872Y495753D01*
X374953Y495598D01*
X375029Y495441D01*
X375102Y495282D01*
X375171Y495122D01*
X375235Y494960D01*
X375296Y494796D01*
X375353Y494631D01*
X375406Y494465D01*
X375454Y494297D01*
X375499Y494128D01*
X375539Y493958D01*
X375575Y493787D01*
X375607Y493616D01*
X375635Y493444D01*
X375659Y493271D01*
X375678Y493097D01*
X375693Y492923D01*
X375703Y492749D01*
X375710Y492575D01*
X375712Y492400D01*
X375710Y492225D01*
X375703Y492051D01*
X375693Y491877D01*
X375678Y491703D01*
X375659Y491529D01*
X375635Y491356D01*
X375607Y491184D01*
X375575Y491013D01*
X375539Y490842D01*
X375499Y490672D01*
X375454Y490503D01*
X375406Y490335D01*
X375353Y490169D01*
X375296Y490004D01*
X375235Y489840D01*
X375171Y489678D01*
X375102Y489518D01*
X375029Y489359D01*
X374953Y489202D01*
X374872Y489047D01*
X374788Y488895D01*
X374700Y488744D01*
X374609Y488595D01*
X374513Y488449D01*
X374415Y488305D01*
X374312Y488163D01*
X374207Y488024D01*
X374098Y487888D01*
X373985Y487755D01*
X373870Y487624D01*
X373751Y487496D01*
X373629Y487371D01*
X373504Y487249D01*
X373376Y487130D01*
X373245Y487015D01*
X373112Y486902D01*
X372976Y486793D01*
X372837Y486688D01*
X372695Y486585D01*
X372551Y486487D01*
X372405Y486391D01*
X372256Y486300D01*
X372105Y486212D01*
X371953Y486128D01*
X371798Y486047D01*
X371641Y485971D01*
X371482Y485898D01*
X371322Y485829D01*
X371160Y485765D01*
X370996Y485704D01*
X370831Y485647D01*
X370665Y485594D01*
X370497Y485546D01*
X370328Y485501D01*
X370158Y485461D01*
X369987Y485425D01*
X369816Y485393D01*
X369644Y485365D01*
X369471Y485341D01*
X369297Y485322D01*
X369123Y485307D01*
X368949Y485297D01*
X368775Y485290D01*
X368600Y485288D01*
X368425Y485290D01*
X368251Y485297D01*
X368077Y485307D01*
X367903Y485322D01*
X367729Y485341D01*
X367556Y485365D01*
X367384Y485393D01*
X367213Y485425D01*
X367042Y485461D01*
X366872Y485501D01*
X366703Y485546D01*
X366535Y485594D01*
X366369Y485647D01*
X366204Y485704D01*
X366040Y485765D01*
X365878Y485829D01*
X365718Y485898D01*
X365559Y485971D01*
X365402Y486047D01*
X365247Y486128D01*
X365095Y486212D01*
X364944Y486300D01*
X364795Y486391D01*
X364649Y486487D01*
X364505Y486585D01*
X364363Y486688D01*
X364224Y486793D01*
X364088Y486902D01*
X363955Y487015D01*
X363824Y487130D01*
X363696Y487249D01*
X363571Y487371D01*
X363449Y487496D01*
X363330Y487624D01*
X363215Y487755D01*
X363102Y487888D01*
X362993Y488024D01*
X362888Y488163D01*
X362785Y488305D01*
X362687Y488449D01*
X362591Y488595D01*
X362500Y488744D01*
X362412Y488895D01*
X362328Y489047D01*
X362247Y489202D01*
X362171Y489359D01*
X362098Y489518D01*
X362029Y489678D01*
X361965Y489840D01*
X361904Y490004D01*
X361847Y490169D01*
X361794Y490335D01*
X361746Y490503D01*
X361701Y490672D01*
X361661Y490842D01*
X361625Y491013D01*
X361593Y491184D01*
X361565Y491356D01*
X361541Y491529D01*
X361522Y491703D01*
X361507Y491877D01*
X361497Y492051D01*
X361490Y492225D01*
X361488Y492400D01*
D12*
X350108Y522408D02*
X350108Y529520D01*
X352084Y529520D01*
X352170Y529518D01*
X352256Y529512D01*
X352342Y529503D01*
X352427Y529490D01*
X352512Y529473D01*
X352595Y529453D01*
X352678Y529429D01*
X352760Y529401D01*
X352840Y529370D01*
X352919Y529335D01*
X352996Y529297D01*
X353072Y529255D01*
X353146Y529211D01*
X353217Y529163D01*
X353287Y529112D01*
X353354Y529058D01*
X353419Y529001D01*
X353481Y528941D01*
X353541Y528879D01*
X353598Y528814D01*
X353652Y528747D01*
X353703Y528677D01*
X353751Y528606D01*
X353795Y528532D01*
X353837Y528456D01*
X353875Y528379D01*
X353910Y528300D01*
X353941Y528220D01*
X353969Y528138D01*
X353993Y528055D01*
X354013Y527972D01*
X354030Y527887D01*
X354043Y527802D01*
X354052Y527716D01*
X354058Y527630D01*
X354060Y527544D01*
X354059Y527544D02*
X354059Y524384D01*
X354060Y524384D02*
X354058Y524298D01*
X354052Y524212D01*
X354043Y524126D01*
X354030Y524041D01*
X354013Y523956D01*
X353993Y523873D01*
X353969Y523790D01*
X353941Y523708D01*
X353910Y523628D01*
X353875Y523549D01*
X353837Y523472D01*
X353795Y523396D01*
X353751Y523322D01*
X353703Y523251D01*
X353652Y523181D01*
X353598Y523114D01*
X353541Y523049D01*
X353481Y522987D01*
X353419Y522927D01*
X353354Y522870D01*
X353287Y522816D01*
X353217Y522765D01*
X353146Y522717D01*
X353072Y522673D01*
X352996Y522631D01*
X352919Y522593D01*
X352840Y522558D01*
X352760Y522527D01*
X352678Y522499D01*
X352595Y522475D01*
X352512Y522455D01*
X352427Y522438D01*
X352342Y522425D01*
X352256Y522416D01*
X352170Y522410D01*
X352084Y522408D01*
X350108Y522408D01*
X357667Y527940D02*
X359643Y529520D01*
X359643Y522408D01*
X361618Y522408D02*
X357667Y522408D01*
D13*
X406400Y533400D03*
D14*
X400939Y524891D02*
X393573Y524891D01*
X393573Y526937D01*
X393575Y527026D01*
X393581Y527115D01*
X393591Y527204D01*
X393604Y527292D01*
X393621Y527380D01*
X393643Y527467D01*
X393668Y527552D01*
X393696Y527637D01*
X393729Y527720D01*
X393765Y527802D01*
X393804Y527882D01*
X393847Y527960D01*
X393893Y528036D01*
X393943Y528111D01*
X393996Y528183D01*
X394052Y528252D01*
X394111Y528319D01*
X394172Y528384D01*
X394237Y528445D01*
X394304Y528504D01*
X394373Y528560D01*
X394445Y528613D01*
X394520Y528663D01*
X394596Y528709D01*
X394674Y528752D01*
X394754Y528791D01*
X394836Y528827D01*
X394919Y528860D01*
X395004Y528888D01*
X395089Y528913D01*
X395176Y528935D01*
X395264Y528952D01*
X395352Y528965D01*
X395441Y528975D01*
X395530Y528981D01*
X395619Y528983D01*
X395708Y528981D01*
X395797Y528975D01*
X395886Y528965D01*
X395974Y528952D01*
X396062Y528935D01*
X396149Y528913D01*
X396234Y528888D01*
X396319Y528860D01*
X396402Y528827D01*
X396484Y528791D01*
X396564Y528752D01*
X396642Y528709D01*
X396718Y528663D01*
X396793Y528613D01*
X396865Y528560D01*
X396934Y528504D01*
X397001Y528445D01*
X397066Y528384D01*
X397127Y528319D01*
X397186Y528252D01*
X397242Y528183D01*
X397295Y528111D01*
X397345Y528036D01*
X397391Y527960D01*
X397434Y527882D01*
X397473Y527802D01*
X397509Y527720D01*
X397542Y527637D01*
X397570Y527552D01*
X397595Y527467D01*
X397617Y527380D01*
X397634Y527292D01*
X397647Y527204D01*
X397657Y527115D01*
X397663Y527026D01*
X397665Y526937D01*
X397665Y524891D01*
X397665Y527346D02*
X400939Y528983D01*
X395210Y532155D02*
X393573Y534201D01*
X400939Y534201D01*
X400939Y532155D02*
X400939Y536247D01*
D13*
X406400Y469900D03*
D14*
X400939Y461391D02*
X393573Y461391D01*
X393573Y463437D01*
X393575Y463526D01*
X393581Y463615D01*
X393591Y463704D01*
X393604Y463792D01*
X393621Y463880D01*
X393643Y463967D01*
X393668Y464052D01*
X393696Y464137D01*
X393729Y464220D01*
X393765Y464302D01*
X393804Y464382D01*
X393847Y464460D01*
X393893Y464536D01*
X393943Y464611D01*
X393996Y464683D01*
X394052Y464752D01*
X394111Y464819D01*
X394172Y464884D01*
X394237Y464945D01*
X394304Y465004D01*
X394373Y465060D01*
X394445Y465113D01*
X394520Y465163D01*
X394596Y465209D01*
X394674Y465252D01*
X394754Y465291D01*
X394836Y465327D01*
X394919Y465360D01*
X395004Y465388D01*
X395089Y465413D01*
X395176Y465435D01*
X395264Y465452D01*
X395352Y465465D01*
X395441Y465475D01*
X395530Y465481D01*
X395619Y465483D01*
X395708Y465481D01*
X395797Y465475D01*
X395886Y465465D01*
X395974Y465452D01*
X396062Y465435D01*
X396149Y465413D01*
X396234Y465388D01*
X396319Y465360D01*
X396402Y465327D01*
X396484Y465291D01*
X396564Y465252D01*
X396642Y465209D01*
X396718Y465163D01*
X396793Y465113D01*
X396865Y465060D01*
X396934Y465004D01*
X397001Y464945D01*
X397066Y464884D01*
X397127Y464819D01*
X397186Y464752D01*
X397242Y464683D01*
X397295Y464611D01*
X397345Y464536D01*
X397391Y464460D01*
X397434Y464382D01*
X397473Y464302D01*
X397509Y464220D01*
X397542Y464137D01*
X397570Y464052D01*
X397595Y463967D01*
X397617Y463880D01*
X397634Y463792D01*
X397647Y463704D01*
X397657Y463615D01*
X397663Y463526D01*
X397665Y463437D01*
X397665Y461391D01*
X397665Y463846D02*
X400939Y465483D01*
X395415Y472748D02*
X395330Y472746D01*
X395245Y472740D01*
X395161Y472730D01*
X395077Y472717D01*
X394993Y472699D01*
X394911Y472678D01*
X394830Y472653D01*
X394750Y472624D01*
X394671Y472591D01*
X394594Y472555D01*
X394519Y472515D01*
X394445Y472472D01*
X394374Y472426D01*
X394305Y472376D01*
X394238Y472323D01*
X394174Y472267D01*
X394113Y472208D01*
X394054Y472147D01*
X393998Y472083D01*
X393945Y472016D01*
X393895Y471947D01*
X393849Y471876D01*
X393806Y471802D01*
X393766Y471727D01*
X393730Y471650D01*
X393697Y471571D01*
X393668Y471491D01*
X393643Y471410D01*
X393622Y471328D01*
X393604Y471244D01*
X393591Y471160D01*
X393581Y471076D01*
X393575Y470991D01*
X393573Y470906D01*
X393575Y470810D01*
X393581Y470714D01*
X393591Y470619D01*
X393604Y470524D01*
X393622Y470429D01*
X393643Y470336D01*
X393668Y470243D01*
X393697Y470152D01*
X393729Y470061D01*
X393765Y469972D01*
X393805Y469885D01*
X393848Y469799D01*
X393894Y469715D01*
X393944Y469633D01*
X393998Y469553D01*
X394054Y469476D01*
X394114Y469401D01*
X394176Y469328D01*
X394242Y469258D01*
X394310Y469190D01*
X394381Y469125D01*
X394454Y469064D01*
X394530Y469005D01*
X394609Y468949D01*
X394689Y468897D01*
X394772Y468848D01*
X394856Y468802D01*
X394942Y468760D01*
X395030Y468722D01*
X395119Y468687D01*
X395210Y468655D01*
X396847Y472133D02*
X396788Y472193D01*
X396726Y472250D01*
X396662Y472305D01*
X396595Y472356D01*
X396526Y472405D01*
X396456Y472451D01*
X396383Y472494D01*
X396309Y472534D01*
X396233Y472570D01*
X396155Y472603D01*
X396076Y472633D01*
X395996Y472660D01*
X395915Y472683D01*
X395833Y472702D01*
X395751Y472718D01*
X395667Y472731D01*
X395583Y472740D01*
X395499Y472745D01*
X395415Y472747D01*
X396847Y472133D02*
X400939Y468655D01*
X400939Y472747D01*
D13*
X406400Y495300D03*
D14*
X400939Y486791D02*
X393573Y486791D01*
X393573Y488837D01*
X393575Y488926D01*
X393581Y489015D01*
X393591Y489104D01*
X393604Y489192D01*
X393621Y489280D01*
X393643Y489367D01*
X393668Y489452D01*
X393696Y489537D01*
X393729Y489620D01*
X393765Y489702D01*
X393804Y489782D01*
X393847Y489860D01*
X393893Y489936D01*
X393943Y490011D01*
X393996Y490083D01*
X394052Y490152D01*
X394111Y490219D01*
X394172Y490284D01*
X394237Y490345D01*
X394304Y490404D01*
X394373Y490460D01*
X394445Y490513D01*
X394520Y490563D01*
X394596Y490609D01*
X394674Y490652D01*
X394754Y490691D01*
X394836Y490727D01*
X394919Y490760D01*
X395004Y490788D01*
X395089Y490813D01*
X395176Y490835D01*
X395264Y490852D01*
X395352Y490865D01*
X395441Y490875D01*
X395530Y490881D01*
X395619Y490883D01*
X395708Y490881D01*
X395797Y490875D01*
X395886Y490865D01*
X395974Y490852D01*
X396062Y490835D01*
X396149Y490813D01*
X396234Y490788D01*
X396319Y490760D01*
X396402Y490727D01*
X396484Y490691D01*
X396564Y490652D01*
X396642Y490609D01*
X396718Y490563D01*
X396793Y490513D01*
X396865Y490460D01*
X396934Y490404D01*
X397001Y490345D01*
X397066Y490284D01*
X397127Y490219D01*
X397186Y490152D01*
X397242Y490083D01*
X397295Y490011D01*
X397345Y489936D01*
X397391Y489860D01*
X397434Y489782D01*
X397473Y489702D01*
X397509Y489620D01*
X397542Y489537D01*
X397570Y489452D01*
X397595Y489367D01*
X397617Y489280D01*
X397634Y489192D01*
X397647Y489104D01*
X397657Y489015D01*
X397663Y488926D01*
X397665Y488837D01*
X397665Y486791D01*
X397665Y489246D02*
X400939Y490883D01*
X400939Y494055D02*
X400939Y496101D01*
X400937Y496190D01*
X400931Y496279D01*
X400921Y496368D01*
X400908Y496456D01*
X400891Y496544D01*
X400869Y496631D01*
X400844Y496716D01*
X400816Y496801D01*
X400783Y496884D01*
X400747Y496966D01*
X400708Y497046D01*
X400665Y497124D01*
X400619Y497200D01*
X400569Y497275D01*
X400516Y497347D01*
X400460Y497416D01*
X400401Y497483D01*
X400340Y497548D01*
X400275Y497609D01*
X400208Y497668D01*
X400139Y497724D01*
X400067Y497777D01*
X399992Y497827D01*
X399916Y497873D01*
X399838Y497916D01*
X399758Y497955D01*
X399676Y497991D01*
X399593Y498024D01*
X399508Y498052D01*
X399423Y498077D01*
X399336Y498099D01*
X399248Y498116D01*
X399160Y498129D01*
X399071Y498139D01*
X398982Y498145D01*
X398893Y498147D01*
X398804Y498145D01*
X398715Y498139D01*
X398626Y498129D01*
X398538Y498116D01*
X398450Y498099D01*
X398363Y498077D01*
X398278Y498052D01*
X398193Y498024D01*
X398110Y497991D01*
X398028Y497955D01*
X397948Y497916D01*
X397870Y497873D01*
X397794Y497827D01*
X397719Y497777D01*
X397647Y497724D01*
X397578Y497668D01*
X397511Y497609D01*
X397446Y497548D01*
X397385Y497483D01*
X397326Y497416D01*
X397270Y497347D01*
X397217Y497275D01*
X397167Y497200D01*
X397121Y497124D01*
X397078Y497046D01*
X397039Y496966D01*
X397003Y496884D01*
X396970Y496801D01*
X396942Y496716D01*
X396917Y496631D01*
X396895Y496544D01*
X396878Y496456D01*
X396865Y496368D01*
X396855Y496279D01*
X396849Y496190D01*
X396847Y496101D01*
X393573Y496510D02*
X393573Y494055D01*
X393573Y496510D02*
X393575Y496589D01*
X393581Y496668D01*
X393590Y496747D01*
X393603Y496825D01*
X393621Y496902D01*
X393641Y496978D01*
X393666Y497053D01*
X393694Y497127D01*
X393725Y497200D01*
X393761Y497271D01*
X393799Y497340D01*
X393841Y497407D01*
X393886Y497472D01*
X393934Y497535D01*
X393985Y497596D01*
X394039Y497653D01*
X394095Y497709D01*
X394154Y497761D01*
X394216Y497811D01*
X394280Y497857D01*
X394346Y497901D01*
X394414Y497941D01*
X394484Y497977D01*
X394556Y498011D01*
X394630Y498041D01*
X394704Y498067D01*
X394780Y498090D01*
X394857Y498108D01*
X394934Y498124D01*
X395013Y498135D01*
X395091Y498143D01*
X395170Y498147D01*
X395250Y498147D01*
X395329Y498143D01*
X395407Y498135D01*
X395486Y498124D01*
X395563Y498108D01*
X395640Y498090D01*
X395716Y498067D01*
X395790Y498041D01*
X395864Y498011D01*
X395936Y497977D01*
X396006Y497941D01*
X396074Y497901D01*
X396140Y497857D01*
X396204Y497811D01*
X396266Y497761D01*
X396325Y497709D01*
X396381Y497653D01*
X396435Y497596D01*
X396486Y497535D01*
X396534Y497472D01*
X396579Y497407D01*
X396621Y497340D01*
X396659Y497271D01*
X396695Y497200D01*
X396726Y497127D01*
X396754Y497053D01*
X396779Y496978D01*
X396799Y496902D01*
X396817Y496825D01*
X396830Y496747D01*
X396839Y496668D01*
X396845Y496589D01*
X396847Y496510D01*
X396847Y494873D01*
D15*
X542290Y82550D02*
X542283Y81936D01*
X542260Y81323D01*
X542223Y80710D01*
X542171Y80099D01*
X542105Y79488D01*
X542023Y78880D01*
X541927Y78274D01*
X541817Y77670D01*
X541692Y77069D01*
X541552Y76471D01*
X541398Y75877D01*
X541229Y75287D01*
X541047Y74701D01*
X540850Y74120D01*
X540639Y73543D01*
X540415Y72972D01*
X540177Y72406D01*
X539925Y71846D01*
X539659Y71293D01*
X539381Y70746D01*
X539089Y70206D01*
X538784Y69673D01*
X538466Y69148D01*
X538136Y68630D01*
X537794Y68121D01*
X537439Y67620D01*
X537072Y67128D01*
X536694Y66645D01*
X536304Y66171D01*
X535902Y65707D01*
X535490Y65252D01*
X535066Y64808D01*
X534632Y64374D01*
X534188Y63950D01*
X533733Y63538D01*
X533269Y63136D01*
X532795Y62746D01*
X532312Y62368D01*
X531820Y62001D01*
X531319Y61646D01*
X530810Y61304D01*
X530292Y60974D01*
X529767Y60656D01*
X529234Y60351D01*
X528694Y60059D01*
X528147Y59781D01*
X527594Y59515D01*
X527034Y59263D01*
X526468Y59025D01*
X525897Y58801D01*
X525320Y58590D01*
X524739Y58393D01*
X524153Y58211D01*
X523563Y58042D01*
X522969Y57888D01*
X522371Y57748D01*
X521770Y57623D01*
X521166Y57513D01*
X520560Y57417D01*
X519952Y57335D01*
X519341Y57269D01*
X518730Y57217D01*
X518117Y57180D01*
X517504Y57157D01*
X516890Y57150D01*
X542290Y82550D02*
X542290Y298450D01*
X542283Y299064D01*
X542260Y299677D01*
X542223Y300290D01*
X542171Y300901D01*
X542105Y301512D01*
X542023Y302120D01*
X541927Y302726D01*
X541817Y303330D01*
X541692Y303931D01*
X541552Y304529D01*
X541398Y305123D01*
X541229Y305713D01*
X541047Y306299D01*
X540850Y306880D01*
X540639Y307457D01*
X540415Y308028D01*
X540177Y308594D01*
X539925Y309154D01*
X539659Y309707D01*
X539381Y310254D01*
X539089Y310794D01*
X538784Y311327D01*
X538466Y311852D01*
X538136Y312370D01*
X537794Y312879D01*
X537439Y313380D01*
X537072Y313872D01*
X536694Y314355D01*
X536304Y314829D01*
X535902Y315293D01*
X535490Y315748D01*
X535066Y316192D01*
X534632Y316626D01*
X534188Y317050D01*
X533733Y317462D01*
X533269Y317864D01*
X532795Y318254D01*
X532312Y318632D01*
X531820Y318999D01*
X531319Y319354D01*
X530810Y319696D01*
X530292Y320026D01*
X529767Y320344D01*
X529234Y320649D01*
X528694Y320941D01*
X528147Y321219D01*
X527594Y321485D01*
X527034Y321737D01*
X526468Y321975D01*
X525897Y322199D01*
X525320Y322410D01*
X524739Y322607D01*
X524153Y322789D01*
X523563Y322958D01*
X522969Y323112D01*
X522371Y323252D01*
X521770Y323377D01*
X521166Y323487D01*
X520560Y323583D01*
X519952Y323665D01*
X519341Y323731D01*
X518730Y323783D01*
X518117Y323820D01*
X517504Y323843D01*
X516890Y323850D01*
X67310Y323850D01*
X66696Y323843D01*
X66083Y323820D01*
X65470Y323783D01*
X64859Y323731D01*
X64248Y323665D01*
X63640Y323583D01*
X63034Y323487D01*
X62430Y323377D01*
X61829Y323252D01*
X61231Y323112D01*
X60637Y322958D01*
X60047Y322789D01*
X59461Y322607D01*
X58880Y322410D01*
X58303Y322199D01*
X57732Y321975D01*
X57166Y321737D01*
X56606Y321485D01*
X56053Y321219D01*
X55506Y320941D01*
X54966Y320649D01*
X54433Y320344D01*
X53908Y320026D01*
X53390Y319696D01*
X52881Y319354D01*
X52380Y318999D01*
X51888Y318632D01*
X51405Y318254D01*
X50931Y317864D01*
X50467Y317462D01*
X50012Y317050D01*
X49568Y316626D01*
X49134Y316192D01*
X48710Y315748D01*
X48298Y315293D01*
X47896Y314829D01*
X47506Y314355D01*
X47128Y313872D01*
X46761Y313380D01*
X46406Y312879D01*
X46064Y312370D01*
X45734Y311852D01*
X45416Y311327D01*
X45111Y310794D01*
X44819Y310254D01*
X44541Y309707D01*
X44275Y309154D01*
X44023Y308594D01*
X43785Y308028D01*
X43561Y307457D01*
X43350Y306880D01*
X43153Y306299D01*
X42971Y305713D01*
X42802Y305123D01*
X42648Y304529D01*
X42508Y303931D01*
X42383Y303330D01*
X42273Y302726D01*
X42177Y302120D01*
X42095Y301512D01*
X42029Y300901D01*
X41977Y300290D01*
X41940Y299677D01*
X41917Y299064D01*
X41910Y298450D01*
X41910Y82550D01*
X41917Y81936D01*
X41940Y81323D01*
X41977Y80710D01*
X42029Y80099D01*
X42095Y79488D01*
X42177Y78880D01*
X42273Y78274D01*
X42383Y77670D01*
X42508Y77069D01*
X42648Y76471D01*
X42802Y75877D01*
X42971Y75287D01*
X43153Y74701D01*
X43350Y74120D01*
X43561Y73543D01*
X43785Y72972D01*
X44023Y72406D01*
X44275Y71846D01*
X44541Y71293D01*
X44819Y70746D01*
X45111Y70206D01*
X45416Y69673D01*
X45734Y69148D01*
X46064Y68630D01*
X46406Y68121D01*
X46761Y67620D01*
X47128Y67128D01*
X47506Y66645D01*
X47896Y66171D01*
X48298Y65707D01*
X48710Y65252D01*
X49134Y64808D01*
X49568Y64374D01*
X50012Y63950D01*
X50467Y63538D01*
X50931Y63136D01*
X51405Y62746D01*
X51888Y62368D01*
X52380Y62001D01*
X52881Y61646D01*
X53390Y61304D01*
X53908Y60974D01*
X54433Y60656D01*
X54966Y60351D01*
X55506Y60059D01*
X56053Y59781D01*
X56606Y59515D01*
X57166Y59263D01*
X57732Y59025D01*
X58303Y58801D01*
X58880Y58590D01*
X59461Y58393D01*
X60047Y58211D01*
X60637Y58042D01*
X61231Y57888D01*
X61829Y57748D01*
X62430Y57623D01*
X63034Y57513D01*
X63640Y57417D01*
X64248Y57335D01*
X64859Y57269D01*
X65470Y57217D01*
X66083Y57180D01*
X66696Y57157D01*
X67310Y57150D01*
X516890Y57150D01*
D14*
X261239Y330581D02*
X259151Y330581D01*
X259062Y330583D01*
X258974Y330589D01*
X258886Y330598D01*
X258798Y330611D01*
X258711Y330628D01*
X258625Y330648D01*
X258540Y330673D01*
X258455Y330700D01*
X258372Y330732D01*
X258291Y330766D01*
X258211Y330805D01*
X258133Y330846D01*
X258056Y330891D01*
X257982Y330939D01*
X257909Y330990D01*
X257839Y331044D01*
X257772Y331102D01*
X257706Y331162D01*
X257644Y331224D01*
X257584Y331290D01*
X257526Y331357D01*
X257472Y331427D01*
X257421Y331500D01*
X257373Y331574D01*
X257328Y331651D01*
X257287Y331729D01*
X257248Y331809D01*
X257214Y331890D01*
X257182Y331973D01*
X257155Y332058D01*
X257130Y332143D01*
X257110Y332229D01*
X257093Y332316D01*
X257080Y332404D01*
X257071Y332492D01*
X257065Y332580D01*
X257063Y332669D01*
X257062Y332669D02*
X257062Y337891D01*
X257063Y337891D02*
X257065Y337982D01*
X257071Y338073D01*
X257081Y338164D01*
X257095Y338254D01*
X257112Y338343D01*
X257134Y338431D01*
X257160Y338519D01*
X257189Y338605D01*
X257222Y338690D01*
X257259Y338773D01*
X257299Y338855D01*
X257343Y338935D01*
X257390Y339013D01*
X257441Y339089D01*
X257494Y339162D01*
X257551Y339233D01*
X257612Y339302D01*
X257675Y339367D01*
X257740Y339430D01*
X257809Y339490D01*
X257880Y339548D01*
X257953Y339601D01*
X258029Y339652D01*
X258107Y339699D01*
X258187Y339743D01*
X258269Y339783D01*
X258352Y339820D01*
X258437Y339853D01*
X258523Y339882D01*
X258611Y339908D01*
X258699Y339930D01*
X258788Y339947D01*
X258878Y339961D01*
X258969Y339971D01*
X259060Y339977D01*
X259151Y339979D01*
X261239Y339979D01*
X281418Y339979D02*
X281418Y330581D01*
X281418Y339979D02*
X284028Y339979D01*
X284128Y339977D01*
X284228Y339971D01*
X284327Y339962D01*
X284427Y339948D01*
X284525Y339931D01*
X284623Y339910D01*
X284720Y339886D01*
X284816Y339857D01*
X284911Y339825D01*
X285004Y339790D01*
X285096Y339751D01*
X285187Y339708D01*
X285275Y339662D01*
X285362Y339612D01*
X285447Y339560D01*
X285530Y339504D01*
X285611Y339445D01*
X285689Y339382D01*
X285765Y339317D01*
X285839Y339249D01*
X285909Y339179D01*
X285977Y339105D01*
X286042Y339029D01*
X286105Y338951D01*
X286164Y338870D01*
X286220Y338787D01*
X286272Y338702D01*
X286322Y338615D01*
X286368Y338527D01*
X286411Y338436D01*
X286450Y338344D01*
X286485Y338251D01*
X286517Y338156D01*
X286546Y338060D01*
X286570Y337963D01*
X286591Y337865D01*
X286608Y337767D01*
X286622Y337667D01*
X286631Y337568D01*
X286637Y337468D01*
X286639Y337368D01*
X286639Y333192D01*
X286637Y333092D01*
X286631Y332992D01*
X286622Y332893D01*
X286608Y332793D01*
X286591Y332695D01*
X286570Y332597D01*
X286546Y332500D01*
X286517Y332404D01*
X286485Y332309D01*
X286450Y332216D01*
X286411Y332124D01*
X286368Y332033D01*
X286322Y331945D01*
X286272Y331858D01*
X286220Y331773D01*
X286164Y331690D01*
X286105Y331609D01*
X286042Y331531D01*
X285977Y331455D01*
X285909Y331381D01*
X285839Y331311D01*
X285765Y331243D01*
X285689Y331178D01*
X285611Y331115D01*
X285530Y331056D01*
X285447Y331000D01*
X285362Y330948D01*
X285275Y330898D01*
X285187Y330852D01*
X285096Y330809D01*
X285004Y330770D01*
X284911Y330735D01*
X284816Y330703D01*
X284720Y330674D01*
X284623Y330650D01*
X284525Y330629D01*
X284427Y330612D01*
X284327Y330598D01*
X284228Y330589D01*
X284128Y330583D01*
X284028Y330581D01*
X281418Y330581D01*
X305774Y334236D02*
X312039Y334236D01*
X331174Y334236D02*
X337439Y334236D01*
X334306Y331103D02*
X334306Y337368D01*
D16*
X76835Y334010D02*
X76835Y342265D01*
X76835Y334010D02*
X76837Y333899D01*
X76843Y333789D01*
X76852Y333678D01*
X76866Y333568D01*
X76883Y333459D01*
X76904Y333350D01*
X76929Y333242D01*
X76958Y333135D01*
X76990Y333029D01*
X77026Y332924D01*
X77066Y332821D01*
X77109Y332719D01*
X77156Y332618D01*
X77207Y332519D01*
X77260Y332423D01*
X77317Y332328D01*
X77378Y332235D01*
X77441Y332144D01*
X77508Y332055D01*
X77578Y331969D01*
X77651Y331886D01*
X77726Y331804D01*
X77804Y331726D01*
X77886Y331651D01*
X77969Y331578D01*
X78055Y331508D01*
X78144Y331441D01*
X78235Y331378D01*
X78328Y331317D01*
X78423Y331260D01*
X78519Y331207D01*
X78618Y331156D01*
X78719Y331109D01*
X78821Y331066D01*
X78924Y331026D01*
X79029Y330990D01*
X79135Y330958D01*
X79242Y330929D01*
X79350Y330904D01*
X79459Y330883D01*
X79568Y330866D01*
X79678Y330852D01*
X79789Y330843D01*
X79899Y330837D01*
X80010Y330835D01*
X80121Y330837D01*
X80231Y330843D01*
X80342Y330852D01*
X80452Y330866D01*
X80561Y330883D01*
X80670Y330904D01*
X80778Y330929D01*
X80885Y330958D01*
X80991Y330990D01*
X81096Y331026D01*
X81199Y331066D01*
X81301Y331109D01*
X81402Y331156D01*
X81501Y331207D01*
X81597Y331260D01*
X81692Y331317D01*
X81785Y331378D01*
X81876Y331441D01*
X81965Y331508D01*
X82051Y331578D01*
X82134Y331651D01*
X82216Y331726D01*
X82294Y331804D01*
X82369Y331886D01*
X82442Y331969D01*
X82512Y332055D01*
X82579Y332144D01*
X82642Y332235D01*
X82703Y332328D01*
X82760Y332422D01*
X82813Y332519D01*
X82864Y332618D01*
X82911Y332719D01*
X82954Y332821D01*
X82994Y332924D01*
X83030Y333029D01*
X83062Y333135D01*
X83091Y333242D01*
X83116Y333350D01*
X83137Y333459D01*
X83154Y333568D01*
X83168Y333678D01*
X83177Y333789D01*
X83183Y333899D01*
X83185Y334010D01*
X83185Y342265D01*
X88646Y339725D02*
X91821Y342265D01*
X91821Y330835D01*
X88646Y330835D02*
X94996Y330835D01*
D13*
X205740Y365760D03*
D14*
X188923Y356489D02*
X188923Y349123D01*
X188923Y356489D02*
X190969Y356489D01*
X191058Y356487D01*
X191147Y356481D01*
X191236Y356471D01*
X191324Y356458D01*
X191412Y356441D01*
X191499Y356419D01*
X191584Y356394D01*
X191669Y356366D01*
X191752Y356333D01*
X191834Y356297D01*
X191914Y356258D01*
X191992Y356215D01*
X192068Y356169D01*
X192143Y356119D01*
X192215Y356066D01*
X192284Y356010D01*
X192351Y355951D01*
X192416Y355890D01*
X192477Y355825D01*
X192536Y355758D01*
X192592Y355689D01*
X192645Y355617D01*
X192695Y355542D01*
X192741Y355466D01*
X192784Y355388D01*
X192823Y355308D01*
X192859Y355226D01*
X192892Y355143D01*
X192920Y355058D01*
X192945Y354973D01*
X192967Y354886D01*
X192984Y354798D01*
X192997Y354710D01*
X193007Y354621D01*
X193013Y354532D01*
X193015Y354443D01*
X193013Y354354D01*
X193007Y354265D01*
X192997Y354176D01*
X192984Y354088D01*
X192967Y354000D01*
X192945Y353913D01*
X192920Y353828D01*
X192892Y353743D01*
X192859Y353660D01*
X192823Y353578D01*
X192784Y353498D01*
X192741Y353420D01*
X192695Y353344D01*
X192645Y353269D01*
X192592Y353197D01*
X192536Y353128D01*
X192477Y353061D01*
X192416Y352996D01*
X192351Y352935D01*
X192284Y352876D01*
X192215Y352820D01*
X192143Y352767D01*
X192068Y352717D01*
X191992Y352671D01*
X191914Y352628D01*
X191834Y352589D01*
X191752Y352553D01*
X191669Y352520D01*
X191584Y352492D01*
X191499Y352467D01*
X191412Y352445D01*
X191324Y352428D01*
X191236Y352415D01*
X191147Y352405D01*
X191058Y352399D01*
X190969Y352397D01*
X188923Y352397D01*
X191378Y352397D02*
X193015Y349123D01*
X196187Y350760D02*
X197824Y356489D01*
X196187Y350760D02*
X200279Y350760D01*
X199051Y352397D02*
X199051Y349123D01*
D13*
X228600Y368300D03*
D14*
X223139Y359791D02*
X215773Y359791D01*
X215773Y361837D01*
X215775Y361926D01*
X215781Y362015D01*
X215791Y362104D01*
X215804Y362192D01*
X215821Y362280D01*
X215843Y362367D01*
X215868Y362452D01*
X215896Y362537D01*
X215929Y362620D01*
X215965Y362702D01*
X216004Y362782D01*
X216047Y362860D01*
X216093Y362936D01*
X216143Y363011D01*
X216196Y363083D01*
X216252Y363152D01*
X216311Y363219D01*
X216372Y363284D01*
X216437Y363345D01*
X216504Y363404D01*
X216573Y363460D01*
X216645Y363513D01*
X216720Y363563D01*
X216796Y363609D01*
X216874Y363652D01*
X216954Y363691D01*
X217036Y363727D01*
X217119Y363760D01*
X217204Y363788D01*
X217289Y363813D01*
X217376Y363835D01*
X217464Y363852D01*
X217552Y363865D01*
X217641Y363875D01*
X217730Y363881D01*
X217819Y363883D01*
X217908Y363881D01*
X217997Y363875D01*
X218086Y363865D01*
X218174Y363852D01*
X218262Y363835D01*
X218349Y363813D01*
X218434Y363788D01*
X218519Y363760D01*
X218602Y363727D01*
X218684Y363691D01*
X218764Y363652D01*
X218842Y363609D01*
X218918Y363563D01*
X218993Y363513D01*
X219065Y363460D01*
X219134Y363404D01*
X219201Y363345D01*
X219266Y363284D01*
X219327Y363219D01*
X219386Y363152D01*
X219442Y363083D01*
X219495Y363011D01*
X219545Y362936D01*
X219591Y362860D01*
X219634Y362782D01*
X219673Y362702D01*
X219709Y362620D01*
X219742Y362537D01*
X219770Y362452D01*
X219795Y362367D01*
X219817Y362280D01*
X219834Y362192D01*
X219847Y362104D01*
X219857Y362015D01*
X219863Y361926D01*
X219865Y361837D01*
X219865Y359791D01*
X219865Y362246D02*
X223139Y363883D01*
X223139Y367055D02*
X223139Y369510D01*
X223137Y369588D01*
X223132Y369666D01*
X223122Y369743D01*
X223109Y369820D01*
X223093Y369896D01*
X223073Y369971D01*
X223049Y370045D01*
X223022Y370118D01*
X222991Y370190D01*
X222957Y370260D01*
X222920Y370329D01*
X222879Y370395D01*
X222835Y370460D01*
X222789Y370522D01*
X222739Y370582D01*
X222687Y370640D01*
X222632Y370695D01*
X222574Y370747D01*
X222514Y370797D01*
X222452Y370843D01*
X222387Y370887D01*
X222321Y370928D01*
X222252Y370965D01*
X222182Y370999D01*
X222110Y371030D01*
X222037Y371057D01*
X221963Y371081D01*
X221888Y371101D01*
X221812Y371117D01*
X221735Y371130D01*
X221658Y371140D01*
X221580Y371145D01*
X221502Y371147D01*
X220684Y371147D01*
X220604Y371145D01*
X220524Y371139D01*
X220444Y371129D01*
X220365Y371116D01*
X220286Y371098D01*
X220209Y371077D01*
X220133Y371051D01*
X220058Y371022D01*
X219984Y370990D01*
X219912Y370954D01*
X219842Y370914D01*
X219775Y370871D01*
X219709Y370825D01*
X219646Y370775D01*
X219585Y370723D01*
X219526Y370668D01*
X219471Y370609D01*
X219419Y370549D01*
X219369Y370485D01*
X219323Y370419D01*
X219280Y370352D01*
X219240Y370282D01*
X219204Y370210D01*
X219172Y370136D01*
X219143Y370062D01*
X219117Y369985D01*
X219096Y369908D01*
X219078Y369829D01*
X219065Y369750D01*
X219055Y369670D01*
X219049Y369590D01*
X219047Y369510D01*
X219047Y367055D01*
X215773Y367055D01*
X215773Y371147D01*
D16*
X262420Y662940D02*
X262420Y712940D01*
X262420Y752940D02*
X262420Y787940D01*
X362420Y787940D01*
X362420Y752940D01*
X362420Y712940D02*
X362420Y662940D01*
X352420Y662940D01*
X272420Y662940D02*
X262420Y662940D01*
X282420Y732940D02*
X282429Y733676D01*
X282456Y734412D01*
X282501Y735147D01*
X282564Y735881D01*
X282646Y736612D01*
X282745Y737342D01*
X282862Y738069D01*
X282996Y738793D01*
X283149Y739513D01*
X283319Y740229D01*
X283507Y740941D01*
X283712Y741649D01*
X283934Y742350D01*
X284174Y743047D01*
X284430Y743737D01*
X284704Y744421D01*
X284994Y745097D01*
X285300Y745767D01*
X285623Y746428D01*
X285962Y747082D01*
X286317Y747727D01*
X286688Y748363D01*
X287074Y748990D01*
X287476Y749607D01*
X287892Y750214D01*
X288324Y750811D01*
X288770Y751397D01*
X289230Y751972D01*
X289704Y752535D01*
X290191Y753087D01*
X290693Y753626D01*
X291207Y754153D01*
X291734Y754667D01*
X292273Y755169D01*
X292825Y755656D01*
X293388Y756130D01*
X293963Y756590D01*
X294549Y757036D01*
X295146Y757468D01*
X295753Y757884D01*
X296370Y758286D01*
X296997Y758672D01*
X297633Y759043D01*
X298278Y759398D01*
X298932Y759737D01*
X299593Y760060D01*
X300263Y760366D01*
X300939Y760656D01*
X301623Y760930D01*
X302313Y761186D01*
X303010Y761426D01*
X303711Y761648D01*
X304419Y761853D01*
X305131Y762041D01*
X305847Y762211D01*
X306567Y762364D01*
X307291Y762498D01*
X308018Y762615D01*
X308748Y762714D01*
X309479Y762796D01*
X310213Y762859D01*
X310948Y762904D01*
X311684Y762931D01*
X312420Y762940D01*
X313156Y762931D01*
X313892Y762904D01*
X314627Y762859D01*
X315361Y762796D01*
X316092Y762714D01*
X316822Y762615D01*
X317549Y762498D01*
X318273Y762364D01*
X318993Y762211D01*
X319709Y762041D01*
X320421Y761853D01*
X321129Y761648D01*
X321830Y761426D01*
X322527Y761186D01*
X323217Y760930D01*
X323901Y760656D01*
X324577Y760366D01*
X325247Y760060D01*
X325908Y759737D01*
X326562Y759398D01*
X327207Y759043D01*
X327843Y758672D01*
X328470Y758286D01*
X329087Y757884D01*
X329694Y757468D01*
X330291Y757036D01*
X330877Y756590D01*
X331452Y756130D01*
X332015Y755656D01*
X332567Y755169D01*
X333106Y754667D01*
X333633Y754153D01*
X334147Y753626D01*
X334649Y753087D01*
X335136Y752535D01*
X335610Y751972D01*
X336070Y751397D01*
X336516Y750811D01*
X336948Y750214D01*
X337364Y749607D01*
X337766Y748990D01*
X338152Y748363D01*
X338523Y747727D01*
X338878Y747082D01*
X339217Y746428D01*
X339540Y745767D01*
X339846Y745097D01*
X340136Y744421D01*
X340410Y743737D01*
X340666Y743047D01*
X340906Y742350D01*
X341128Y741649D01*
X341333Y740941D01*
X341521Y740229D01*
X341691Y739513D01*
X341844Y738793D01*
X341978Y738069D01*
X342095Y737342D01*
X342194Y736612D01*
X342276Y735881D01*
X342339Y735147D01*
X342384Y734412D01*
X342411Y733676D01*
X342420Y732940D01*
X342411Y732204D01*
X342384Y731468D01*
X342339Y730733D01*
X342276Y729999D01*
X342194Y729268D01*
X342095Y728538D01*
X341978Y727811D01*
X341844Y727087D01*
X341691Y726367D01*
X341521Y725651D01*
X341333Y724939D01*
X341128Y724231D01*
X340906Y723530D01*
X340666Y722833D01*
X340410Y722143D01*
X340136Y721459D01*
X339846Y720783D01*
X339540Y720113D01*
X339217Y719452D01*
X338878Y718798D01*
X338523Y718153D01*
X338152Y717517D01*
X337766Y716890D01*
X337364Y716273D01*
X336948Y715666D01*
X336516Y715069D01*
X336070Y714483D01*
X335610Y713908D01*
X335136Y713345D01*
X334649Y712793D01*
X334147Y712254D01*
X333633Y711727D01*
X333106Y711213D01*
X332567Y710711D01*
X332015Y710224D01*
X331452Y709750D01*
X330877Y709290D01*
X330291Y708844D01*
X329694Y708412D01*
X329087Y707996D01*
X328470Y707594D01*
X327843Y707208D01*
X327207Y706837D01*
X326562Y706482D01*
X325908Y706143D01*
X325247Y705820D01*
X324577Y705514D01*
X323901Y705224D01*
X323217Y704950D01*
X322527Y704694D01*
X321830Y704454D01*
X321129Y704232D01*
X320421Y704027D01*
X319709Y703839D01*
X318993Y703669D01*
X318273Y703516D01*
X317549Y703382D01*
X316822Y703265D01*
X316092Y703166D01*
X315361Y703084D01*
X314627Y703021D01*
X313892Y702976D01*
X313156Y702949D01*
X312420Y702940D01*
X311684Y702949D01*
X310948Y702976D01*
X310213Y703021D01*
X309479Y703084D01*
X308748Y703166D01*
X308018Y703265D01*
X307291Y703382D01*
X306567Y703516D01*
X305847Y703669D01*
X305131Y703839D01*
X304419Y704027D01*
X303711Y704232D01*
X303010Y704454D01*
X302313Y704694D01*
X301623Y704950D01*
X300939Y705224D01*
X300263Y705514D01*
X299593Y705820D01*
X298932Y706143D01*
X298278Y706482D01*
X297633Y706837D01*
X296997Y707208D01*
X296370Y707594D01*
X295753Y707996D01*
X295146Y708412D01*
X294549Y708844D01*
X293963Y709290D01*
X293388Y709750D01*
X292825Y710224D01*
X292273Y710711D01*
X291734Y711213D01*
X291207Y711727D01*
X290693Y712254D01*
X290191Y712793D01*
X289704Y713345D01*
X289230Y713908D01*
X288770Y714483D01*
X288324Y715069D01*
X287892Y715666D01*
X287476Y716273D01*
X287074Y716890D01*
X286688Y717517D01*
X286317Y718153D01*
X285962Y718798D01*
X285623Y719452D01*
X285300Y720113D01*
X284994Y720783D01*
X284704Y721459D01*
X284430Y722143D01*
X284174Y722833D01*
X283934Y723530D01*
X283712Y724231D01*
X283507Y724939D01*
X283319Y725651D01*
X283149Y726367D01*
X282996Y727087D01*
X282862Y727811D01*
X282745Y728538D01*
X282646Y729268D01*
X282564Y729999D01*
X282501Y730733D01*
X282456Y731468D01*
X282429Y732204D01*
X282420Y732940D01*
D14*
X262001Y790321D02*
X262001Y797687D01*
X264047Y797687D01*
X264136Y797685D01*
X264225Y797679D01*
X264314Y797669D01*
X264402Y797656D01*
X264490Y797639D01*
X264577Y797617D01*
X264662Y797592D01*
X264747Y797564D01*
X264830Y797531D01*
X264912Y797495D01*
X264992Y797456D01*
X265070Y797413D01*
X265146Y797367D01*
X265221Y797317D01*
X265293Y797264D01*
X265362Y797208D01*
X265429Y797149D01*
X265494Y797088D01*
X265555Y797023D01*
X265614Y796956D01*
X265670Y796887D01*
X265723Y796815D01*
X265773Y796740D01*
X265819Y796664D01*
X265862Y796586D01*
X265901Y796506D01*
X265937Y796424D01*
X265970Y796341D01*
X265998Y796256D01*
X266023Y796171D01*
X266045Y796084D01*
X266062Y795996D01*
X266075Y795908D01*
X266085Y795819D01*
X266091Y795730D01*
X266093Y795641D01*
X266091Y795552D01*
X266085Y795463D01*
X266075Y795374D01*
X266062Y795286D01*
X266045Y795198D01*
X266023Y795111D01*
X265998Y795026D01*
X265970Y794941D01*
X265937Y794858D01*
X265901Y794776D01*
X265862Y794696D01*
X265819Y794618D01*
X265773Y794542D01*
X265723Y794467D01*
X265670Y794395D01*
X265614Y794326D01*
X265555Y794259D01*
X265494Y794194D01*
X265429Y794133D01*
X265362Y794074D01*
X265293Y794018D01*
X265221Y793965D01*
X265146Y793915D01*
X265070Y793869D01*
X264992Y793826D01*
X264912Y793787D01*
X264830Y793751D01*
X264747Y793718D01*
X264662Y793690D01*
X264577Y793665D01*
X264490Y793643D01*
X264402Y793626D01*
X264314Y793613D01*
X264225Y793603D01*
X264136Y793597D01*
X264047Y793595D01*
X262001Y793595D01*
X264456Y793595D02*
X266093Y790321D01*
X269265Y792367D02*
X269267Y792456D01*
X269273Y792545D01*
X269283Y792634D01*
X269296Y792722D01*
X269313Y792810D01*
X269335Y792897D01*
X269360Y792982D01*
X269388Y793067D01*
X269421Y793150D01*
X269457Y793232D01*
X269496Y793312D01*
X269539Y793390D01*
X269585Y793466D01*
X269635Y793541D01*
X269688Y793613D01*
X269744Y793682D01*
X269803Y793749D01*
X269864Y793814D01*
X269929Y793875D01*
X269996Y793934D01*
X270065Y793990D01*
X270137Y794043D01*
X270212Y794093D01*
X270288Y794139D01*
X270366Y794182D01*
X270446Y794221D01*
X270528Y794257D01*
X270611Y794290D01*
X270696Y794318D01*
X270781Y794343D01*
X270868Y794365D01*
X270956Y794382D01*
X271044Y794395D01*
X271133Y794405D01*
X271222Y794411D01*
X271311Y794413D01*
X271400Y794411D01*
X271489Y794405D01*
X271578Y794395D01*
X271666Y794382D01*
X271754Y794365D01*
X271841Y794343D01*
X271926Y794318D01*
X272011Y794290D01*
X272094Y794257D01*
X272176Y794221D01*
X272256Y794182D01*
X272334Y794139D01*
X272410Y794093D01*
X272485Y794043D01*
X272557Y793990D01*
X272626Y793934D01*
X272693Y793875D01*
X272758Y793814D01*
X272819Y793749D01*
X272878Y793682D01*
X272934Y793613D01*
X272987Y793541D01*
X273037Y793466D01*
X273083Y793390D01*
X273126Y793312D01*
X273165Y793232D01*
X273201Y793150D01*
X273234Y793067D01*
X273262Y792982D01*
X273287Y792897D01*
X273309Y792810D01*
X273326Y792722D01*
X273339Y792634D01*
X273349Y792545D01*
X273355Y792456D01*
X273357Y792367D01*
X273355Y792278D01*
X273349Y792189D01*
X273339Y792100D01*
X273326Y792012D01*
X273309Y791924D01*
X273287Y791837D01*
X273262Y791752D01*
X273234Y791667D01*
X273201Y791584D01*
X273165Y791502D01*
X273126Y791422D01*
X273083Y791344D01*
X273037Y791268D01*
X272987Y791193D01*
X272934Y791121D01*
X272878Y791052D01*
X272819Y790985D01*
X272758Y790920D01*
X272693Y790859D01*
X272626Y790800D01*
X272557Y790744D01*
X272485Y790691D01*
X272410Y790641D01*
X272334Y790595D01*
X272256Y790552D01*
X272176Y790513D01*
X272094Y790477D01*
X272011Y790444D01*
X271926Y790416D01*
X271841Y790391D01*
X271754Y790369D01*
X271666Y790352D01*
X271578Y790339D01*
X271489Y790329D01*
X271400Y790323D01*
X271311Y790321D01*
X271222Y790323D01*
X271133Y790329D01*
X271044Y790339D01*
X270956Y790352D01*
X270868Y790369D01*
X270781Y790391D01*
X270696Y790416D01*
X270611Y790444D01*
X270528Y790477D01*
X270446Y790513D01*
X270366Y790552D01*
X270288Y790595D01*
X270212Y790641D01*
X270137Y790691D01*
X270065Y790744D01*
X269996Y790800D01*
X269929Y790859D01*
X269864Y790920D01*
X269803Y790985D01*
X269744Y791052D01*
X269688Y791121D01*
X269635Y791193D01*
X269585Y791268D01*
X269539Y791344D01*
X269496Y791422D01*
X269457Y791502D01*
X269421Y791584D01*
X269388Y791667D01*
X269360Y791752D01*
X269335Y791837D01*
X269313Y791924D01*
X269296Y792012D01*
X269283Y792100D01*
X269273Y792189D01*
X269267Y792278D01*
X269265Y792367D01*
X269674Y796050D02*
X269676Y796129D01*
X269682Y796208D01*
X269691Y796287D01*
X269704Y796365D01*
X269722Y796442D01*
X269742Y796518D01*
X269767Y796593D01*
X269795Y796667D01*
X269826Y796740D01*
X269862Y796811D01*
X269900Y796880D01*
X269942Y796947D01*
X269987Y797012D01*
X270035Y797075D01*
X270086Y797136D01*
X270140Y797193D01*
X270196Y797249D01*
X270255Y797301D01*
X270317Y797351D01*
X270381Y797397D01*
X270447Y797441D01*
X270515Y797481D01*
X270585Y797517D01*
X270657Y797551D01*
X270731Y797581D01*
X270805Y797607D01*
X270881Y797630D01*
X270958Y797648D01*
X271035Y797664D01*
X271114Y797675D01*
X271192Y797683D01*
X271271Y797687D01*
X271351Y797687D01*
X271430Y797683D01*
X271508Y797675D01*
X271587Y797664D01*
X271664Y797648D01*
X271741Y797630D01*
X271817Y797607D01*
X271891Y797581D01*
X271965Y797551D01*
X272037Y797517D01*
X272107Y797481D01*
X272175Y797441D01*
X272241Y797397D01*
X272305Y797351D01*
X272367Y797301D01*
X272426Y797249D01*
X272482Y797193D01*
X272536Y797136D01*
X272587Y797075D01*
X272635Y797012D01*
X272680Y796947D01*
X272722Y796880D01*
X272760Y796811D01*
X272796Y796740D01*
X272827Y796667D01*
X272855Y796593D01*
X272880Y796518D01*
X272900Y796442D01*
X272918Y796365D01*
X272931Y796287D01*
X272940Y796208D01*
X272946Y796129D01*
X272948Y796050D01*
X272946Y795971D01*
X272940Y795892D01*
X272931Y795813D01*
X272918Y795735D01*
X272900Y795658D01*
X272880Y795582D01*
X272855Y795507D01*
X272827Y795433D01*
X272796Y795360D01*
X272760Y795289D01*
X272722Y795220D01*
X272680Y795153D01*
X272635Y795088D01*
X272587Y795025D01*
X272536Y794964D01*
X272482Y794907D01*
X272426Y794851D01*
X272367Y794799D01*
X272305Y794749D01*
X272241Y794703D01*
X272175Y794659D01*
X272107Y794619D01*
X272037Y794583D01*
X271965Y794549D01*
X271891Y794519D01*
X271817Y794493D01*
X271741Y794470D01*
X271664Y794452D01*
X271587Y794436D01*
X271508Y794425D01*
X271430Y794417D01*
X271351Y794413D01*
X271271Y794413D01*
X271192Y794417D01*
X271114Y794425D01*
X271035Y794436D01*
X270958Y794452D01*
X270881Y794470D01*
X270805Y794493D01*
X270731Y794519D01*
X270657Y794549D01*
X270585Y794583D01*
X270515Y794619D01*
X270447Y794659D01*
X270381Y794703D01*
X270317Y794749D01*
X270255Y794799D01*
X270196Y794851D01*
X270140Y794907D01*
X270086Y794964D01*
X270035Y795025D01*
X269987Y795088D01*
X269942Y795153D01*
X269900Y795220D01*
X269862Y795289D01*
X269826Y795360D01*
X269795Y795433D01*
X269767Y795507D01*
X269742Y795582D01*
X269722Y795658D01*
X269704Y795735D01*
X269691Y795813D01*
X269682Y795892D01*
X269676Y795971D01*
X269674Y796050D01*
D17*
X96200Y473000D02*
X96200Y463000D01*
X56200Y463000D01*
X56200Y473000D01*
X56200Y543000D02*
X56200Y553000D01*
X96200Y553000D01*
X96200Y543000D01*
X105200Y468000D02*
X105202Y468063D01*
X105208Y468125D01*
X105218Y468187D01*
X105231Y468249D01*
X105249Y468309D01*
X105270Y468368D01*
X105295Y468426D01*
X105324Y468482D01*
X105356Y468536D01*
X105391Y468588D01*
X105429Y468637D01*
X105471Y468685D01*
X105515Y468729D01*
X105563Y468771D01*
X105612Y468809D01*
X105664Y468844D01*
X105718Y468876D01*
X105774Y468905D01*
X105832Y468930D01*
X105891Y468951D01*
X105951Y468969D01*
X106013Y468982D01*
X106075Y468992D01*
X106137Y468998D01*
X106200Y469000D01*
X106263Y468998D01*
X106325Y468992D01*
X106387Y468982D01*
X106449Y468969D01*
X106509Y468951D01*
X106568Y468930D01*
X106626Y468905D01*
X106682Y468876D01*
X106736Y468844D01*
X106788Y468809D01*
X106837Y468771D01*
X106885Y468729D01*
X106929Y468685D01*
X106971Y468637D01*
X107009Y468588D01*
X107044Y468536D01*
X107076Y468482D01*
X107105Y468426D01*
X107130Y468368D01*
X107151Y468309D01*
X107169Y468249D01*
X107182Y468187D01*
X107192Y468125D01*
X107198Y468063D01*
X107200Y468000D01*
X107198Y467937D01*
X107192Y467875D01*
X107182Y467813D01*
X107169Y467751D01*
X107151Y467691D01*
X107130Y467632D01*
X107105Y467574D01*
X107076Y467518D01*
X107044Y467464D01*
X107009Y467412D01*
X106971Y467363D01*
X106929Y467315D01*
X106885Y467271D01*
X106837Y467229D01*
X106788Y467191D01*
X106736Y467156D01*
X106682Y467124D01*
X106626Y467095D01*
X106568Y467070D01*
X106509Y467049D01*
X106449Y467031D01*
X106387Y467018D01*
X106325Y467008D01*
X106263Y467002D01*
X106200Y467000D01*
X106137Y467002D01*
X106075Y467008D01*
X106013Y467018D01*
X105951Y467031D01*
X105891Y467049D01*
X105832Y467070D01*
X105774Y467095D01*
X105718Y467124D01*
X105664Y467156D01*
X105612Y467191D01*
X105563Y467229D01*
X105515Y467271D01*
X105471Y467315D01*
X105429Y467363D01*
X105391Y467412D01*
X105356Y467464D01*
X105324Y467518D01*
X105295Y467574D01*
X105270Y467632D01*
X105249Y467691D01*
X105231Y467751D01*
X105218Y467813D01*
X105208Y467875D01*
X105202Y467937D01*
X105200Y468000D01*
D14*
X25019Y472736D02*
X25017Y472814D01*
X25012Y472892D01*
X25002Y472969D01*
X24989Y473046D01*
X24973Y473122D01*
X24953Y473197D01*
X24929Y473271D01*
X24902Y473344D01*
X24871Y473416D01*
X24837Y473486D01*
X24800Y473555D01*
X24759Y473621D01*
X24715Y473686D01*
X24669Y473748D01*
X24619Y473808D01*
X24567Y473866D01*
X24512Y473921D01*
X24454Y473973D01*
X24394Y474023D01*
X24332Y474069D01*
X24267Y474113D01*
X24201Y474154D01*
X24132Y474191D01*
X24062Y474225D01*
X23990Y474256D01*
X23917Y474283D01*
X23843Y474307D01*
X23768Y474327D01*
X23692Y474343D01*
X23615Y474356D01*
X23538Y474366D01*
X23460Y474371D01*
X23382Y474373D01*
X25019Y472736D02*
X25017Y472622D01*
X25012Y472509D01*
X25002Y472395D01*
X24989Y472282D01*
X24972Y472170D01*
X24952Y472058D01*
X24928Y471947D01*
X24900Y471836D01*
X24869Y471727D01*
X24834Y471619D01*
X24795Y471512D01*
X24753Y471406D01*
X24708Y471302D01*
X24659Y471199D01*
X24606Y471098D01*
X24551Y470999D01*
X24492Y470901D01*
X24430Y470806D01*
X24365Y470713D01*
X24297Y470621D01*
X24226Y470533D01*
X24152Y470446D01*
X24075Y470362D01*
X23996Y470281D01*
X19290Y470486D02*
X19212Y470488D01*
X19134Y470493D01*
X19057Y470503D01*
X18980Y470516D01*
X18904Y470532D01*
X18829Y470552D01*
X18755Y470576D01*
X18682Y470603D01*
X18610Y470634D01*
X18540Y470668D01*
X18471Y470705D01*
X18405Y470746D01*
X18340Y470790D01*
X18278Y470836D01*
X18218Y470886D01*
X18160Y470938D01*
X18105Y470993D01*
X18053Y471051D01*
X18003Y471111D01*
X17957Y471173D01*
X17913Y471238D01*
X17872Y471305D01*
X17835Y471373D01*
X17801Y471443D01*
X17770Y471515D01*
X17743Y471588D01*
X17719Y471662D01*
X17699Y471737D01*
X17683Y471813D01*
X17670Y471890D01*
X17660Y471967D01*
X17655Y472045D01*
X17653Y472123D01*
X17655Y472233D01*
X17661Y472342D01*
X17671Y472452D01*
X17684Y472560D01*
X17702Y472669D01*
X17723Y472776D01*
X17749Y472883D01*
X17778Y472989D01*
X17810Y473094D01*
X17847Y473197D01*
X17887Y473299D01*
X17931Y473400D01*
X17979Y473499D01*
X18029Y473596D01*
X18084Y473691D01*
X18142Y473784D01*
X18203Y473875D01*
X18267Y473964D01*
X20722Y471304D02*
X20680Y471238D01*
X20636Y471173D01*
X20588Y471111D01*
X20538Y471051D01*
X20485Y470993D01*
X20429Y470938D01*
X20371Y470885D01*
X20310Y470836D01*
X20247Y470789D01*
X20182Y470745D01*
X20115Y470705D01*
X20046Y470668D01*
X19975Y470634D01*
X19903Y470603D01*
X19829Y470576D01*
X19754Y470552D01*
X19679Y470532D01*
X19602Y470516D01*
X19525Y470503D01*
X19447Y470493D01*
X19368Y470488D01*
X19290Y470486D01*
X21949Y473555D02*
X21991Y473622D01*
X22035Y473687D01*
X22083Y473749D01*
X22133Y473809D01*
X22186Y473867D01*
X22242Y473922D01*
X22301Y473974D01*
X22361Y474024D01*
X22425Y474071D01*
X22490Y474114D01*
X22557Y474155D01*
X22626Y474192D01*
X22697Y474226D01*
X22769Y474257D01*
X22843Y474284D01*
X22917Y474308D01*
X22993Y474328D01*
X23070Y474344D01*
X23147Y474357D01*
X23225Y474367D01*
X23304Y474372D01*
X23382Y474374D01*
X21950Y473555D02*
X20722Y471304D01*
X17653Y477100D02*
X25019Y478737D01*
X20108Y480374D01*
X25019Y482011D01*
X17653Y483648D01*
X19290Y486618D02*
X17653Y488664D01*
X25019Y488664D01*
X25019Y486618D02*
X25019Y490711D01*
M02*
