G04 EAGLE Gerber RS-274X export*
G75*
%MOMM*%
%FSLAX34Y34*%
%LPD*%
%INSoldermask Bottom*%
%IPPOS*%
%AMOC8*
5,1,8,0,0,1.08239X$1,22.5*%
G01*
%ADD10C,0.502400*%
%ADD11R,1.676400X1.676400*%
%ADD12P,1.814519X8X202.500000*%
%ADD13C,2.152400*%
%ADD14C,1.930400*%
%ADD15P,1.814519X8X22.500000*%
%ADD16R,0.660400X0.762000*%
%ADD17C,1.676400*%
%ADD18C,3.372400*%
%ADD19C,1.552400*%
%ADD20C,2.652400*%


D10*
X25400Y27940D03*
X25400Y876300D03*
X894080Y876300D03*
D11*
X535940Y589280D03*
D12*
X510540Y589280D03*
X485140Y589280D03*
X459740Y589280D03*
X434340Y589280D03*
X408940Y589280D03*
X383540Y589280D03*
X358140Y589280D03*
X332740Y589280D03*
X307340Y589280D03*
X281940Y589280D03*
X256540Y589280D03*
X231140Y589280D03*
X205740Y589280D03*
X180340Y589280D03*
X154940Y589280D03*
X129540Y589280D03*
X104140Y589280D03*
D11*
X535940Y812800D03*
D12*
X510540Y812800D03*
X485140Y812800D03*
X459740Y812800D03*
X434340Y812800D03*
X408940Y812800D03*
X383540Y812800D03*
X358140Y812800D03*
X332740Y812800D03*
X307340Y812800D03*
X281940Y812800D03*
X256540Y812800D03*
X231140Y812800D03*
X205740Y812800D03*
X180340Y812800D03*
X154940Y812800D03*
X129540Y812800D03*
X104140Y812800D03*
X510540Y614680D03*
X485140Y614680D03*
X459740Y614680D03*
X434340Y614680D03*
X408940Y614680D03*
X383540Y614680D03*
X358140Y614680D03*
X332740Y614680D03*
X307340Y614680D03*
X281940Y614680D03*
X256540Y614680D03*
X231140Y614680D03*
X205740Y614680D03*
X180340Y614680D03*
X154940Y614680D03*
X129540Y614680D03*
X104140Y614680D03*
X510540Y838200D03*
X485140Y838200D03*
X459740Y838200D03*
X434340Y838200D03*
X408940Y838200D03*
X383540Y838200D03*
X358140Y838200D03*
X332740Y838200D03*
X307340Y838200D03*
X281940Y838200D03*
X256540Y838200D03*
X231140Y838200D03*
X205740Y838200D03*
X180340Y838200D03*
X154940Y838200D03*
X129540Y838200D03*
X104140Y838200D03*
X535940Y614680D03*
X535940Y838200D03*
D13*
X73660Y76200D03*
X510540Y76200D03*
X73660Y304800D03*
X510540Y304800D03*
D14*
X256540Y304800D03*
X281940Y304800D03*
X307340Y304800D03*
X332740Y304800D03*
D15*
X381000Y419100D03*
X406400Y419100D03*
X431800Y419100D03*
X457200Y419100D03*
X482600Y419100D03*
X508000Y419100D03*
X533400Y419100D03*
D16*
X469900Y502412D03*
X469900Y513588D03*
X495300Y502412D03*
X495300Y513588D03*
D17*
X777400Y647700D03*
X797400Y647700D03*
X752400Y647700D03*
X822400Y647700D03*
D18*
X721700Y620600D03*
X853100Y620600D03*
D19*
X287420Y662940D03*
X312420Y662940D03*
X337420Y662940D03*
D20*
X262420Y732940D03*
X362420Y732940D03*
D15*
X271780Y441960D03*
X297180Y441960D03*
X322580Y441960D03*
M02*
