G04 EAGLE Gerber RS-274X export*
G75*
%MOMM*%
%FSLAX34Y34*%
%LPD*%
%INSoldermask Top*%
%IPPOS*%
%AMOC8*
5,1,8,0,0,1.08239X$1,22.5*%
G01*
%ADD10C,0.502400*%
%ADD11R,1.252400X1.652400*%
%ADD12R,0.660400X0.762000*%
%ADD13R,1.676400X1.676400*%
%ADD14P,1.814519X8X202.500000*%
%ADD15C,2.152400*%
%ADD16C,1.930400*%
%ADD17P,1.814519X8X22.500000*%
%ADD18C,1.676400*%
%ADD19C,3.372400*%
%ADD20C,1.552400*%
%ADD21C,2.652400*%
%ADD22R,2.652400X1.352400*%
%ADD23C,0.609600*%
%ADD24C,1.168400*%


D10*
X25400Y27940D03*
X25400Y876300D03*
X894080Y876300D03*
D11*
X360600Y507900D03*
X360600Y476900D03*
X375600Y476900D03*
X375600Y507900D03*
D12*
X406400Y527812D03*
X406400Y538988D03*
X406400Y464312D03*
X406400Y475488D03*
X406400Y489712D03*
X406400Y500888D03*
D13*
X535940Y589280D03*
D14*
X510540Y589280D03*
X485140Y589280D03*
X459740Y589280D03*
X434340Y589280D03*
X408940Y589280D03*
X383540Y589280D03*
X358140Y589280D03*
X332740Y589280D03*
X307340Y589280D03*
X281940Y589280D03*
X256540Y589280D03*
X231140Y589280D03*
X205740Y589280D03*
X180340Y589280D03*
X154940Y589280D03*
X129540Y589280D03*
X104140Y589280D03*
D13*
X535940Y812800D03*
D14*
X510540Y812800D03*
X485140Y812800D03*
X459740Y812800D03*
X434340Y812800D03*
X408940Y812800D03*
X383540Y812800D03*
X358140Y812800D03*
X332740Y812800D03*
X307340Y812800D03*
X281940Y812800D03*
X256540Y812800D03*
X231140Y812800D03*
X205740Y812800D03*
X180340Y812800D03*
X154940Y812800D03*
X129540Y812800D03*
X104140Y812800D03*
X510540Y614680D03*
X485140Y614680D03*
X459740Y614680D03*
X434340Y614680D03*
X408940Y614680D03*
X383540Y614680D03*
X358140Y614680D03*
X332740Y614680D03*
X307340Y614680D03*
X281940Y614680D03*
X256540Y614680D03*
X231140Y614680D03*
X205740Y614680D03*
X180340Y614680D03*
X154940Y614680D03*
X129540Y614680D03*
X104140Y614680D03*
X510540Y838200D03*
X485140Y838200D03*
X459740Y838200D03*
X434340Y838200D03*
X408940Y838200D03*
X383540Y838200D03*
X358140Y838200D03*
X332740Y838200D03*
X307340Y838200D03*
X281940Y838200D03*
X256540Y838200D03*
X231140Y838200D03*
X205740Y838200D03*
X180340Y838200D03*
X154940Y838200D03*
X129540Y838200D03*
X104140Y838200D03*
X535940Y614680D03*
X535940Y838200D03*
D15*
X73660Y76200D03*
X510540Y76200D03*
X73660Y304800D03*
X510540Y304800D03*
D16*
X256540Y304800D03*
X281940Y304800D03*
X307340Y304800D03*
X332740Y304800D03*
D12*
X205740Y360172D03*
X205740Y371348D03*
X228600Y362712D03*
X228600Y373888D03*
D17*
X381000Y419100D03*
X406400Y419100D03*
X431800Y419100D03*
X457200Y419100D03*
X482600Y419100D03*
X508000Y419100D03*
X533400Y419100D03*
D18*
X777400Y647700D03*
X797400Y647700D03*
X752400Y647700D03*
X822400Y647700D03*
D19*
X721700Y620600D03*
X853100Y620600D03*
D20*
X287420Y662940D03*
X312420Y662940D03*
X337420Y662940D03*
D21*
X262420Y732940D03*
X362420Y732940D03*
D17*
X271780Y441960D03*
X297180Y441960D03*
X322580Y441960D03*
D22*
X103700Y483000D03*
X103700Y508000D03*
X103700Y533000D03*
X48700Y483000D03*
X48700Y508000D03*
X48700Y533000D03*
D23*
X55880Y27940D02*
X55882Y28127D01*
X55889Y28314D01*
X55901Y28501D01*
X55917Y28687D01*
X55937Y28873D01*
X55962Y29058D01*
X55992Y29243D01*
X56026Y29427D01*
X56065Y29610D01*
X56108Y29792D01*
X56156Y29972D01*
X56208Y30152D01*
X56265Y30330D01*
X56325Y30507D01*
X56391Y30682D01*
X56460Y30856D01*
X56534Y31028D01*
X56612Y31198D01*
X56694Y31366D01*
X56780Y31532D01*
X56870Y31696D01*
X56964Y31857D01*
X57062Y32017D01*
X57164Y32173D01*
X57270Y32328D01*
X57380Y32479D01*
X57493Y32628D01*
X57610Y32774D01*
X57730Y32917D01*
X57854Y33057D01*
X57981Y33194D01*
X58112Y33328D01*
X58246Y33459D01*
X58383Y33586D01*
X58523Y33710D01*
X58666Y33830D01*
X58812Y33947D01*
X58961Y34060D01*
X59112Y34170D01*
X59267Y34276D01*
X59423Y34378D01*
X59583Y34476D01*
X59744Y34570D01*
X59908Y34660D01*
X60074Y34746D01*
X60242Y34828D01*
X60412Y34906D01*
X60584Y34980D01*
X60758Y35049D01*
X60933Y35115D01*
X61110Y35175D01*
X61288Y35232D01*
X61468Y35284D01*
X61648Y35332D01*
X61830Y35375D01*
X62013Y35414D01*
X62197Y35448D01*
X62382Y35478D01*
X62567Y35503D01*
X62753Y35523D01*
X62939Y35539D01*
X63126Y35551D01*
X63313Y35558D01*
X63500Y35560D01*
X63687Y35558D01*
X63874Y35551D01*
X64061Y35539D01*
X64247Y35523D01*
X64433Y35503D01*
X64618Y35478D01*
X64803Y35448D01*
X64987Y35414D01*
X65170Y35375D01*
X65352Y35332D01*
X65532Y35284D01*
X65712Y35232D01*
X65890Y35175D01*
X66067Y35115D01*
X66242Y35049D01*
X66416Y34980D01*
X66588Y34906D01*
X66758Y34828D01*
X66926Y34746D01*
X67092Y34660D01*
X67256Y34570D01*
X67417Y34476D01*
X67577Y34378D01*
X67733Y34276D01*
X67888Y34170D01*
X68039Y34060D01*
X68188Y33947D01*
X68334Y33830D01*
X68477Y33710D01*
X68617Y33586D01*
X68754Y33459D01*
X68888Y33328D01*
X69019Y33194D01*
X69146Y33057D01*
X69270Y32917D01*
X69390Y32774D01*
X69507Y32628D01*
X69620Y32479D01*
X69730Y32328D01*
X69836Y32173D01*
X69938Y32017D01*
X70036Y31857D01*
X70130Y31696D01*
X70220Y31532D01*
X70306Y31366D01*
X70388Y31198D01*
X70466Y31028D01*
X70540Y30856D01*
X70609Y30682D01*
X70675Y30507D01*
X70735Y30330D01*
X70792Y30152D01*
X70844Y29972D01*
X70892Y29792D01*
X70935Y29610D01*
X70974Y29427D01*
X71008Y29243D01*
X71038Y29058D01*
X71063Y28873D01*
X71083Y28687D01*
X71099Y28501D01*
X71111Y28314D01*
X71118Y28127D01*
X71120Y27940D01*
X71118Y27753D01*
X71111Y27566D01*
X71099Y27379D01*
X71083Y27193D01*
X71063Y27007D01*
X71038Y26822D01*
X71008Y26637D01*
X70974Y26453D01*
X70935Y26270D01*
X70892Y26088D01*
X70844Y25908D01*
X70792Y25728D01*
X70735Y25550D01*
X70675Y25373D01*
X70609Y25198D01*
X70540Y25024D01*
X70466Y24852D01*
X70388Y24682D01*
X70306Y24514D01*
X70220Y24348D01*
X70130Y24184D01*
X70036Y24023D01*
X69938Y23863D01*
X69836Y23707D01*
X69730Y23552D01*
X69620Y23401D01*
X69507Y23252D01*
X69390Y23106D01*
X69270Y22963D01*
X69146Y22823D01*
X69019Y22686D01*
X68888Y22552D01*
X68754Y22421D01*
X68617Y22294D01*
X68477Y22170D01*
X68334Y22050D01*
X68188Y21933D01*
X68039Y21820D01*
X67888Y21710D01*
X67733Y21604D01*
X67577Y21502D01*
X67417Y21404D01*
X67256Y21310D01*
X67092Y21220D01*
X66926Y21134D01*
X66758Y21052D01*
X66588Y20974D01*
X66416Y20900D01*
X66242Y20831D01*
X66067Y20765D01*
X65890Y20705D01*
X65712Y20648D01*
X65532Y20596D01*
X65352Y20548D01*
X65170Y20505D01*
X64987Y20466D01*
X64803Y20432D01*
X64618Y20402D01*
X64433Y20377D01*
X64247Y20357D01*
X64061Y20341D01*
X63874Y20329D01*
X63687Y20322D01*
X63500Y20320D01*
X63313Y20322D01*
X63126Y20329D01*
X62939Y20341D01*
X62753Y20357D01*
X62567Y20377D01*
X62382Y20402D01*
X62197Y20432D01*
X62013Y20466D01*
X61830Y20505D01*
X61648Y20548D01*
X61468Y20596D01*
X61288Y20648D01*
X61110Y20705D01*
X60933Y20765D01*
X60758Y20831D01*
X60584Y20900D01*
X60412Y20974D01*
X60242Y21052D01*
X60074Y21134D01*
X59908Y21220D01*
X59744Y21310D01*
X59583Y21404D01*
X59423Y21502D01*
X59267Y21604D01*
X59112Y21710D01*
X58961Y21820D01*
X58812Y21933D01*
X58666Y22050D01*
X58523Y22170D01*
X58383Y22294D01*
X58246Y22421D01*
X58112Y22552D01*
X57981Y22686D01*
X57854Y22823D01*
X57730Y22963D01*
X57610Y23106D01*
X57493Y23252D01*
X57380Y23401D01*
X57270Y23552D01*
X57164Y23707D01*
X57062Y23863D01*
X56964Y24023D01*
X56870Y24184D01*
X56780Y24348D01*
X56694Y24514D01*
X56612Y24682D01*
X56534Y24852D01*
X56460Y25024D01*
X56391Y25198D01*
X56325Y25373D01*
X56265Y25550D01*
X56208Y25728D01*
X56156Y25908D01*
X56108Y26088D01*
X56065Y26270D01*
X56026Y26453D01*
X55992Y26637D01*
X55962Y26822D01*
X55937Y27007D01*
X55917Y27193D01*
X55901Y27379D01*
X55889Y27566D01*
X55882Y27753D01*
X55880Y27940D01*
D24*
X63500Y27940D03*
D23*
X55880Y876300D02*
X55882Y876487D01*
X55889Y876674D01*
X55901Y876861D01*
X55917Y877047D01*
X55937Y877233D01*
X55962Y877418D01*
X55992Y877603D01*
X56026Y877787D01*
X56065Y877970D01*
X56108Y878152D01*
X56156Y878332D01*
X56208Y878512D01*
X56265Y878690D01*
X56325Y878867D01*
X56391Y879042D01*
X56460Y879216D01*
X56534Y879388D01*
X56612Y879558D01*
X56694Y879726D01*
X56780Y879892D01*
X56870Y880056D01*
X56964Y880217D01*
X57062Y880377D01*
X57164Y880533D01*
X57270Y880688D01*
X57380Y880839D01*
X57493Y880988D01*
X57610Y881134D01*
X57730Y881277D01*
X57854Y881417D01*
X57981Y881554D01*
X58112Y881688D01*
X58246Y881819D01*
X58383Y881946D01*
X58523Y882070D01*
X58666Y882190D01*
X58812Y882307D01*
X58961Y882420D01*
X59112Y882530D01*
X59267Y882636D01*
X59423Y882738D01*
X59583Y882836D01*
X59744Y882930D01*
X59908Y883020D01*
X60074Y883106D01*
X60242Y883188D01*
X60412Y883266D01*
X60584Y883340D01*
X60758Y883409D01*
X60933Y883475D01*
X61110Y883535D01*
X61288Y883592D01*
X61468Y883644D01*
X61648Y883692D01*
X61830Y883735D01*
X62013Y883774D01*
X62197Y883808D01*
X62382Y883838D01*
X62567Y883863D01*
X62753Y883883D01*
X62939Y883899D01*
X63126Y883911D01*
X63313Y883918D01*
X63500Y883920D01*
X63687Y883918D01*
X63874Y883911D01*
X64061Y883899D01*
X64247Y883883D01*
X64433Y883863D01*
X64618Y883838D01*
X64803Y883808D01*
X64987Y883774D01*
X65170Y883735D01*
X65352Y883692D01*
X65532Y883644D01*
X65712Y883592D01*
X65890Y883535D01*
X66067Y883475D01*
X66242Y883409D01*
X66416Y883340D01*
X66588Y883266D01*
X66758Y883188D01*
X66926Y883106D01*
X67092Y883020D01*
X67256Y882930D01*
X67417Y882836D01*
X67577Y882738D01*
X67733Y882636D01*
X67888Y882530D01*
X68039Y882420D01*
X68188Y882307D01*
X68334Y882190D01*
X68477Y882070D01*
X68617Y881946D01*
X68754Y881819D01*
X68888Y881688D01*
X69019Y881554D01*
X69146Y881417D01*
X69270Y881277D01*
X69390Y881134D01*
X69507Y880988D01*
X69620Y880839D01*
X69730Y880688D01*
X69836Y880533D01*
X69938Y880377D01*
X70036Y880217D01*
X70130Y880056D01*
X70220Y879892D01*
X70306Y879726D01*
X70388Y879558D01*
X70466Y879388D01*
X70540Y879216D01*
X70609Y879042D01*
X70675Y878867D01*
X70735Y878690D01*
X70792Y878512D01*
X70844Y878332D01*
X70892Y878152D01*
X70935Y877970D01*
X70974Y877787D01*
X71008Y877603D01*
X71038Y877418D01*
X71063Y877233D01*
X71083Y877047D01*
X71099Y876861D01*
X71111Y876674D01*
X71118Y876487D01*
X71120Y876300D01*
X71118Y876113D01*
X71111Y875926D01*
X71099Y875739D01*
X71083Y875553D01*
X71063Y875367D01*
X71038Y875182D01*
X71008Y874997D01*
X70974Y874813D01*
X70935Y874630D01*
X70892Y874448D01*
X70844Y874268D01*
X70792Y874088D01*
X70735Y873910D01*
X70675Y873733D01*
X70609Y873558D01*
X70540Y873384D01*
X70466Y873212D01*
X70388Y873042D01*
X70306Y872874D01*
X70220Y872708D01*
X70130Y872544D01*
X70036Y872383D01*
X69938Y872223D01*
X69836Y872067D01*
X69730Y871912D01*
X69620Y871761D01*
X69507Y871612D01*
X69390Y871466D01*
X69270Y871323D01*
X69146Y871183D01*
X69019Y871046D01*
X68888Y870912D01*
X68754Y870781D01*
X68617Y870654D01*
X68477Y870530D01*
X68334Y870410D01*
X68188Y870293D01*
X68039Y870180D01*
X67888Y870070D01*
X67733Y869964D01*
X67577Y869862D01*
X67417Y869764D01*
X67256Y869670D01*
X67092Y869580D01*
X66926Y869494D01*
X66758Y869412D01*
X66588Y869334D01*
X66416Y869260D01*
X66242Y869191D01*
X66067Y869125D01*
X65890Y869065D01*
X65712Y869008D01*
X65532Y868956D01*
X65352Y868908D01*
X65170Y868865D01*
X64987Y868826D01*
X64803Y868792D01*
X64618Y868762D01*
X64433Y868737D01*
X64247Y868717D01*
X64061Y868701D01*
X63874Y868689D01*
X63687Y868682D01*
X63500Y868680D01*
X63313Y868682D01*
X63126Y868689D01*
X62939Y868701D01*
X62753Y868717D01*
X62567Y868737D01*
X62382Y868762D01*
X62197Y868792D01*
X62013Y868826D01*
X61830Y868865D01*
X61648Y868908D01*
X61468Y868956D01*
X61288Y869008D01*
X61110Y869065D01*
X60933Y869125D01*
X60758Y869191D01*
X60584Y869260D01*
X60412Y869334D01*
X60242Y869412D01*
X60074Y869494D01*
X59908Y869580D01*
X59744Y869670D01*
X59583Y869764D01*
X59423Y869862D01*
X59267Y869964D01*
X59112Y870070D01*
X58961Y870180D01*
X58812Y870293D01*
X58666Y870410D01*
X58523Y870530D01*
X58383Y870654D01*
X58246Y870781D01*
X58112Y870912D01*
X57981Y871046D01*
X57854Y871183D01*
X57730Y871323D01*
X57610Y871466D01*
X57493Y871612D01*
X57380Y871761D01*
X57270Y871912D01*
X57164Y872067D01*
X57062Y872223D01*
X56964Y872383D01*
X56870Y872544D01*
X56780Y872708D01*
X56694Y872874D01*
X56612Y873042D01*
X56534Y873212D01*
X56460Y873384D01*
X56391Y873558D01*
X56325Y873733D01*
X56265Y873910D01*
X56208Y874088D01*
X56156Y874268D01*
X56108Y874448D01*
X56065Y874630D01*
X56026Y874813D01*
X55992Y874997D01*
X55962Y875182D01*
X55937Y875367D01*
X55917Y875553D01*
X55901Y875739D01*
X55889Y875926D01*
X55882Y876113D01*
X55880Y876300D01*
D24*
X63500Y876300D03*
D23*
X853440Y876300D02*
X853442Y876487D01*
X853449Y876674D01*
X853461Y876861D01*
X853477Y877047D01*
X853497Y877233D01*
X853522Y877418D01*
X853552Y877603D01*
X853586Y877787D01*
X853625Y877970D01*
X853668Y878152D01*
X853716Y878332D01*
X853768Y878512D01*
X853825Y878690D01*
X853885Y878867D01*
X853951Y879042D01*
X854020Y879216D01*
X854094Y879388D01*
X854172Y879558D01*
X854254Y879726D01*
X854340Y879892D01*
X854430Y880056D01*
X854524Y880217D01*
X854622Y880377D01*
X854724Y880533D01*
X854830Y880688D01*
X854940Y880839D01*
X855053Y880988D01*
X855170Y881134D01*
X855290Y881277D01*
X855414Y881417D01*
X855541Y881554D01*
X855672Y881688D01*
X855806Y881819D01*
X855943Y881946D01*
X856083Y882070D01*
X856226Y882190D01*
X856372Y882307D01*
X856521Y882420D01*
X856672Y882530D01*
X856827Y882636D01*
X856983Y882738D01*
X857143Y882836D01*
X857304Y882930D01*
X857468Y883020D01*
X857634Y883106D01*
X857802Y883188D01*
X857972Y883266D01*
X858144Y883340D01*
X858318Y883409D01*
X858493Y883475D01*
X858670Y883535D01*
X858848Y883592D01*
X859028Y883644D01*
X859208Y883692D01*
X859390Y883735D01*
X859573Y883774D01*
X859757Y883808D01*
X859942Y883838D01*
X860127Y883863D01*
X860313Y883883D01*
X860499Y883899D01*
X860686Y883911D01*
X860873Y883918D01*
X861060Y883920D01*
X861247Y883918D01*
X861434Y883911D01*
X861621Y883899D01*
X861807Y883883D01*
X861993Y883863D01*
X862178Y883838D01*
X862363Y883808D01*
X862547Y883774D01*
X862730Y883735D01*
X862912Y883692D01*
X863092Y883644D01*
X863272Y883592D01*
X863450Y883535D01*
X863627Y883475D01*
X863802Y883409D01*
X863976Y883340D01*
X864148Y883266D01*
X864318Y883188D01*
X864486Y883106D01*
X864652Y883020D01*
X864816Y882930D01*
X864977Y882836D01*
X865137Y882738D01*
X865293Y882636D01*
X865448Y882530D01*
X865599Y882420D01*
X865748Y882307D01*
X865894Y882190D01*
X866037Y882070D01*
X866177Y881946D01*
X866314Y881819D01*
X866448Y881688D01*
X866579Y881554D01*
X866706Y881417D01*
X866830Y881277D01*
X866950Y881134D01*
X867067Y880988D01*
X867180Y880839D01*
X867290Y880688D01*
X867396Y880533D01*
X867498Y880377D01*
X867596Y880217D01*
X867690Y880056D01*
X867780Y879892D01*
X867866Y879726D01*
X867948Y879558D01*
X868026Y879388D01*
X868100Y879216D01*
X868169Y879042D01*
X868235Y878867D01*
X868295Y878690D01*
X868352Y878512D01*
X868404Y878332D01*
X868452Y878152D01*
X868495Y877970D01*
X868534Y877787D01*
X868568Y877603D01*
X868598Y877418D01*
X868623Y877233D01*
X868643Y877047D01*
X868659Y876861D01*
X868671Y876674D01*
X868678Y876487D01*
X868680Y876300D01*
X868678Y876113D01*
X868671Y875926D01*
X868659Y875739D01*
X868643Y875553D01*
X868623Y875367D01*
X868598Y875182D01*
X868568Y874997D01*
X868534Y874813D01*
X868495Y874630D01*
X868452Y874448D01*
X868404Y874268D01*
X868352Y874088D01*
X868295Y873910D01*
X868235Y873733D01*
X868169Y873558D01*
X868100Y873384D01*
X868026Y873212D01*
X867948Y873042D01*
X867866Y872874D01*
X867780Y872708D01*
X867690Y872544D01*
X867596Y872383D01*
X867498Y872223D01*
X867396Y872067D01*
X867290Y871912D01*
X867180Y871761D01*
X867067Y871612D01*
X866950Y871466D01*
X866830Y871323D01*
X866706Y871183D01*
X866579Y871046D01*
X866448Y870912D01*
X866314Y870781D01*
X866177Y870654D01*
X866037Y870530D01*
X865894Y870410D01*
X865748Y870293D01*
X865599Y870180D01*
X865448Y870070D01*
X865293Y869964D01*
X865137Y869862D01*
X864977Y869764D01*
X864816Y869670D01*
X864652Y869580D01*
X864486Y869494D01*
X864318Y869412D01*
X864148Y869334D01*
X863976Y869260D01*
X863802Y869191D01*
X863627Y869125D01*
X863450Y869065D01*
X863272Y869008D01*
X863092Y868956D01*
X862912Y868908D01*
X862730Y868865D01*
X862547Y868826D01*
X862363Y868792D01*
X862178Y868762D01*
X861993Y868737D01*
X861807Y868717D01*
X861621Y868701D01*
X861434Y868689D01*
X861247Y868682D01*
X861060Y868680D01*
X860873Y868682D01*
X860686Y868689D01*
X860499Y868701D01*
X860313Y868717D01*
X860127Y868737D01*
X859942Y868762D01*
X859757Y868792D01*
X859573Y868826D01*
X859390Y868865D01*
X859208Y868908D01*
X859028Y868956D01*
X858848Y869008D01*
X858670Y869065D01*
X858493Y869125D01*
X858318Y869191D01*
X858144Y869260D01*
X857972Y869334D01*
X857802Y869412D01*
X857634Y869494D01*
X857468Y869580D01*
X857304Y869670D01*
X857143Y869764D01*
X856983Y869862D01*
X856827Y869964D01*
X856672Y870070D01*
X856521Y870180D01*
X856372Y870293D01*
X856226Y870410D01*
X856083Y870530D01*
X855943Y870654D01*
X855806Y870781D01*
X855672Y870912D01*
X855541Y871046D01*
X855414Y871183D01*
X855290Y871323D01*
X855170Y871466D01*
X855053Y871612D01*
X854940Y871761D01*
X854830Y871912D01*
X854724Y872067D01*
X854622Y872223D01*
X854524Y872383D01*
X854430Y872544D01*
X854340Y872708D01*
X854254Y872874D01*
X854172Y873042D01*
X854094Y873212D01*
X854020Y873384D01*
X853951Y873558D01*
X853885Y873733D01*
X853825Y873910D01*
X853768Y874088D01*
X853716Y874268D01*
X853668Y874448D01*
X853625Y874630D01*
X853586Y874813D01*
X853552Y874997D01*
X853522Y875182D01*
X853497Y875367D01*
X853477Y875553D01*
X853461Y875739D01*
X853449Y875926D01*
X853442Y876113D01*
X853440Y876300D01*
D24*
X861060Y876300D03*
M02*
