M48
;GenerationSoftware,Autodesk,EAGLE,9.5.1*%
;CreationDate,2019-12-18T07:14:57Z*%
FMAT,2
ICI,OFF
METRIC,TZ,000.000
T9C0.305
T8C0.350
T7C0.889
T6C0.920
T5C1.000
T4C1.016
T3C2.000
T2C2.300
T1C2.500
%
G90
M71
T1
X26242Y73294
X36242Y73294
T2
X85310Y62060
X72170Y62060
T3
X7366Y7620
X51054Y7620
X7366Y30480
X51054Y30480
T4
X33274Y30480
X30734Y30480
X28194Y30480
X25654Y30480
T5
X33742Y66294
X31242Y66294
X28742Y66294
T6
X82240Y64770
X75240Y64770
X79740Y64770
X77740Y64770
T7
X48514Y58928
X40640Y41910
X43180Y41910
X48260Y41910
X50800Y41910
X53340Y41910
X27178Y44196
X29718Y44196
X32258Y44196
X15494Y81280
X53594Y58928
X51054Y58928
X45974Y58928
X43434Y58928
X40894Y58928
X38354Y58928
X35814Y58928
X33274Y58928
X30734Y58928
X28194Y58928
X25654Y58928
X23114Y58928
X20574Y58928
X18034Y58928
X15494Y58928
X12954Y58928
X10414Y58928
X53594Y81280
X51054Y81280
X48514Y81280
X45974Y81280
X43434Y81280
X40894Y81280
X38354Y81280
X35814Y81280
X33274Y81280
X30734Y81280
X28194Y81280
X25654Y81280
X23114Y81280
X20574Y81280
X18034Y81280
X45720Y41910
X12954Y81280
X10414Y81280
X51054Y61468
X48514Y61468
X45974Y61468
X43434Y61468
X40894Y61468
X38354Y61468
X35814Y61468
X33274Y61468
X30734Y61468
X28194Y61468
X25654Y61468
X23114Y61468
X20574Y61468
X18034Y61468
X15494Y61468
X12954Y61468
X10414Y61468
X51054Y83820
X48514Y83820
X45974Y83820
X43434Y83820
X40894Y83820
X38354Y83820
X35814Y83820
X33274Y83820
X30734Y83820
X28194Y83820
X25654Y83820
X23114Y83820
X20574Y83820
X18034Y83820
X15494Y83820
X12954Y83820
X10414Y83820
X53594Y61468
X53594Y83820
X38100Y41910
T8
X25654Y62992
X26670Y62992
X89408Y87630
X2540Y87630
X2540Y2794
T9
X49530Y52578
X22860Y38608
X13462Y48260
X20574Y39370
X38354Y54102
X2286Y48260
X69088Y60198
X39116Y48006
X36068Y45720
X23368Y48514
X69342Y64008
X69342Y65024
X2286Y53340
X13716Y53340
X23876Y40132
X18796Y36068
X46990Y52578
M30